<svg width="22" height="23" viewBox="0 0 22 23" fill="none" xmlns="http://www.w3.org/2000/svg">
<path d="M3.46013 2.5762C3.24786 1.80687 3.73815 1 4.43372 1H17.5669C18.2625 1 18.7528 1.80687 18.5405 2.5762C17.95 4.71647 17.0003 8.60158 17.0003 11.4534C17.0003 14.3052 17.95 18.1903 18.5405 20.3306C18.7528 21.0999 18.2625 21.9068 17.5669 21.9068H4.43372C3.73815 21.9068 3.24786 21.0999 3.46013 20.3306C4.05067 18.1903 5.00032 14.3052 5.00032 11.4534C5.00032 8.60158 4.05067 4.71647 3.46013 2.5762Z" stroke="#2E53C1" stroke-linecap="round" stroke-linejoin="round"/>
<path d="M1 6.22656C1.75 7.38805 1.99994 9.71102 1.99994 11.4533C1.99994 13.1955 1.75 15.5185 1 16.6799" stroke="#2E53C1" stroke-linecap="round" stroke-linejoin="round"/>
<path d="M8 6.5166H14" stroke="#2E53C1" stroke-linecap="round"/>
<path d="M8 11.4531H14" stroke="#2E53C1" stroke-linecap="round"/>
<path d="M8 16.0996H10" stroke="#2E53C1" stroke-linecap="round"/>
<path d="M21 6.22656C20.25 7.38805 20 9.71102 20 11.4533C20 13.1955 20.25 14.9377 21 16.6799" stroke="#2E53C1" stroke-linecap="round" stroke-linejoin="round"/>
</svg>
