<svg width="20" height="23" viewBox="0 0 20 23" fill="none" xmlns="http://www.w3.org/2000/svg">
<path d="M17.5 1H2.5C1.67157 1 1 1.78002 1 2.74223V20.1645C1 21.1267 1.67157 21.9068 2.5 21.9068H17.5C18.3284 21.9068 19 21.1267 19 20.1645V2.74223C19 1.78002 18.3284 1 17.5 1Z" stroke="#2E53C1" stroke-linejoin="round"/>
<path d="M7 7.96879C7 7.00656 7.67155 6.22656 8.5 6.22656H10V9.71102H8.5C7.67155 9.71102 7 8.93103 7 7.96879Z" stroke="#2E53C1" stroke-linejoin="round"/>
<path d="M7 11.4532C7 10.4909 7.67155 9.71094 8.5 9.71094H10V13.1954H8.5C7.67155 13.1954 7 12.4154 7 11.4532Z" stroke="#2E53C1" stroke-linejoin="round"/>
<path d="M7 14.9375C7 13.9753 7.67155 13.1953 8.5 13.1953H10V14.9375C10 15.8998 9.32845 16.6798 8.5 16.6798C7.67155 16.6798 7 15.8998 7 14.9375Z" stroke="#2E53C1" stroke-linejoin="round"/>
<path d="M10 6.22656H11.5C12.3285 6.22656 13 7.00656 13 7.96879C13 8.93103 12.3285 9.71102 11.5 9.71102H10V6.22656Z" stroke="#2E53C1" stroke-linejoin="round"/>
<path d="M10 11.4532C10 10.4909 10.6715 9.71094 11.5 9.71094C12.3285 9.71094 13 10.4909 13 11.4532C13 12.4154 12.3285 13.1954 11.5 13.1954C10.6715 13.1954 10 12.4154 10 11.4532Z" stroke="#2E53C1" stroke-linejoin="round"/>
</svg>
