<svg width="21" height="21" viewBox="0 0 21 21" fill="none" xmlns="http://www.w3.org/2000/svg">
<path d="M10.4722 0C4.68853 0 0 4.68853 0 10.4722C0 16.2559 4.68853 20.9444 10.4722 20.9444C16.2559 20.9444 20.9444 16.2559 20.9444 10.4722C20.9444 4.68853 16.2558 0 10.4722 0ZM7.6782 15.535H5.37892V8.10672H7.6782V15.535ZM6.5176 7.13393C5.76668 7.13393 5.15793 6.52021 5.15793 5.76328C5.15793 5.00626 5.76677 4.39258 6.5176 4.39258C7.26844 4.39258 7.87719 5.00626 7.87719 5.76328C7.87723 6.52025 7.26848 7.13393 6.5176 7.13393ZM16.2947 15.535H14.0066V11.6358C14.0066 10.5663 13.6004 9.96936 12.7547 9.96936C11.8344 9.96936 11.3536 10.5911 11.3536 11.6358V15.535H9.14832V8.10672H11.3536V9.10719C11.3536 9.10719 12.0169 7.88013 13.5921 7.88013C15.1672 7.88013 16.2948 8.84191 16.2948 10.8315L16.2947 15.535Z" fill="#EFF1F4"/>
</svg>
