<svg width="22" height="21" viewBox="0 0 22 21" fill="none" xmlns="http://www.w3.org/2000/svg">
<path d="M13 19.5838H2.5C1.67158 19.5838 1 18.8038 1 17.8416V2.74223C1 1.78003 1.67158 1 2.5 1H19.5C20.3285 1 21 1.78003 21 2.74223V9.7453" stroke="#2E53C1" stroke-linecap="round" stroke-linejoin="round"/>
<path d="M18.5 20.1642V13.1953" stroke="#2E53C1" stroke-linecap="round" stroke-linejoin="round"/>
<path d="M16 16.099L18.5 13.1953L21 16.099" stroke="#2E53C1" stroke-linecap="round" stroke-linejoin="round"/>
<path d="M1 2.74223C1 1.78003 1.67158 1 2.5 1H19.5C20.3285 1 21 1.78003 21 2.74223V7.96892H1V2.74223Z" stroke="#2E53C1"/>
<path d="M3 4.48354C3 3.8418 3.44772 3.32157 4 3.32157C4.55228 3.32157 5 3.8418 5 4.48354C5 5.12528 4.55228 5.64551 4 5.64551C3.44772 5.64551 3 5.12528 3 4.48354Z" fill="#2E53C1"/>
<path d="M6 4.48354C6 3.8418 6.44772 3.32157 7 3.32157C7.55228 3.32157 8 3.8418 8 4.48354C8 5.12528 7.55228 5.64551 7 5.64551C6.44772 5.64551 6 5.12528 6 4.48354Z" fill="#2E53C1"/>
</svg>
