<svg width="21" height="17" viewBox="0 0 21 17" fill="none" xmlns="http://www.w3.org/2000/svg">
<path d="M4.92412 5.857C4.82074 5.60738 5.0042 5.33282 5.27438 5.33282H7.0113C7.16846 5.33282 7.30932 5.42978 7.36543 5.57658L10.7671 14.4759C10.8036 14.5712 10.8 14.6771 10.7574 14.7698L10.2209 15.9348C10.159 16.0692 10.0246 16.1553 9.87657 16.1553H9.44246C9.28911 16.1553 9.15087 16.063 9.09219 15.9213L4.92412 5.857Z" fill="#EFF1F4"/>
<path d="M9.99757 3.75289C10.112 3.75775 10.218 3.81404 10.2861 3.90604L11.2911 5.26306C11.4764 5.5134 11.2975 5.86809 10.986 5.8678L1.98406 5.85938C1.87789 5.85928 1.77663 5.81467 1.70491 5.73639L0.523394 4.44705C0.418439 4.33252 0.393979 4.16555 0.461671 4.02572L0.674936 3.58521C0.740812 3.44914 0.881232 3.36521 1.03227 3.37163L9.99757 3.75289Z" fill="#EFF1F4"/>
<path d="M11.4511 15.9664C11.3907 16.1046 11.2541 16.1939 11.1033 16.1938L9.44214 16.192C9.16868 16.1918 8.98546 15.9109 9.09543 15.6605L13.5592 5.49728C13.6198 5.35942 13.7562 5.27046 13.9067 5.27062L15.5421 5.27232C15.8153 5.2726 15.9985 5.55285 15.8892 5.80315L11.4511 15.9664Z" fill="#EFF1F4"/>
<path d="M18.8032 15.9635C18.7455 16.1073 18.606 16.2016 18.451 16.2014L16.7007 16.1996C16.431 16.1993 16.2479 15.9254 16.3506 15.6761L19.0065 9.22862C19.1305 8.92763 19.5511 8.91257 19.6963 9.20392L20.6285 11.0744C20.6768 11.1713 20.6813 11.2843 20.641 11.3847L18.8032 15.9635Z" fill="#EFF1F4"/>
<path d="M18.1071 15.7258C18.1855 15.9706 18.0027 16.2208 17.7457 16.2205L10.7566 16.2133C10.46 16.213 10.2786 15.8875 10.4344 15.6351L11.2413 14.3274C11.3104 14.2154 11.4327 14.1472 11.5643 14.1473L17.3275 14.1533C17.4922 14.1535 17.638 14.26 17.6882 14.4169L18.1071 15.7258Z" fill="#EFF1F4"/>
<path d="M18.1943 15.9981C18.2294 16.108 18.1494 16.2209 18.0364 16.2208L10.3787 16.2129C10.2481 16.2127 10.1688 16.0653 10.2386 15.9523L11.3036 14.2264C11.3341 14.177 11.3871 14.1472 11.4441 14.1472L17.4838 14.1535C17.5555 14.1536 17.619 14.2007 17.6413 14.2705L18.1943 15.9981Z" fill="#EFF1F4"/>
<path d="M18.8424 7.06403C18.7828 7.20398 18.6453 7.29475 18.4932 7.29459L14.4682 7.29041C14.1783 7.29011 13.996 6.97787 14.1382 6.72531L14.8478 5.46502C14.915 5.3456 15.0415 5.27176 15.1785 5.2719L19.0308 5.2759C19.3024 5.27619 19.4856 5.55365 19.3792 5.80357L18.8424 7.06403Z" fill="#EFF1F4"/>
</svg>
