<svg width="488" height="260" viewBox="0 0 488 260" fill="none" xmlns="http://www.w3.org/2000/svg">
<rect width="488" height="260" rx="9.60219" fill="#151718"/>
<circle cx="27.1295" cy="23.7965" r="6.26229" fill="#FF5F56"/>
<circle cx="45.9127" cy="23.7965" r="6.26229" fill="#FFBD2E"/>
<circle cx="64.7057" cy="23.7965" r="6.26229" fill="#27C93F"/>
<path d="M28.3394 73V63.4753H29.8028V73H28.3394ZM29.0835 61.8879C28.7983 61.8879 28.5523 61.7907 28.3456 61.5965C28.143 61.4022 28.0418 61.1686 28.0418 60.8957C28.0418 60.6229 28.143 60.3893 28.3456 60.195C28.5523 60.0007 28.7983 59.9036 29.0835 59.9036C29.3688 59.9036 29.6127 60.0007 29.8152 60.195C30.0219 60.3893 30.1253 60.6229 30.1253 60.8957C30.1253 61.1686 30.0219 61.4022 29.8152 61.5965C29.6127 61.7907 29.3688 61.8879 29.0835 61.8879ZM34.2294 73V63.4753H35.6432V64.9636H35.7672C35.9656 64.4551 36.286 64.0603 36.7284 63.7792C37.1707 63.4939 37.7019 63.3513 38.322 63.3513C38.9504 63.3513 39.4733 63.4939 39.8908 63.7792C40.3125 64.0603 40.6412 64.4551 40.8768 64.9636H40.976C41.2199 64.4716 41.5858 64.081 42.0736 63.7916C42.5614 63.4981 43.1463 63.3513 43.8284 63.3513C44.68 63.3513 45.3766 63.618 45.9182 64.1512C46.4597 64.6804 46.7305 65.5051 46.7305 66.6254V73H45.2671V66.6254C45.2671 65.9226 45.0748 65.4204 44.6904 65.1186C44.3059 64.8168 43.8533 64.6659 43.3324 64.6659C42.6627 64.6659 42.1439 64.8685 41.7759 65.2736C41.408 65.6746 41.2241 66.1831 41.2241 66.799V73H39.7358V66.4766C39.7358 65.9351 39.5601 65.4989 39.2087 65.1682C38.8574 64.8333 38.4047 64.6659 37.8507 64.6659C37.4704 64.6659 37.1149 64.7672 36.7842 64.9698C36.4576 65.1723 36.193 65.4534 35.9904 65.8131C35.792 66.1686 35.6928 66.5799 35.6928 67.0471V73H34.2294ZM51.1524 76.5717V63.4753H52.5662V64.9884H52.7398C52.8473 64.823 52.9961 64.6122 53.1863 64.3559C53.3806 64.0954 53.6576 63.8639 54.0172 63.6614C54.381 63.4547 54.873 63.3513 55.4931 63.3513C56.295 63.3513 57.002 63.5518 57.6138 63.9528C58.2256 64.3538 58.7031 64.9222 59.0462 65.6581C59.3893 66.3939 59.5609 67.2621 59.5609 68.2625C59.5609 69.2712 59.3893 70.1455 59.0462 70.8855C58.7031 71.6213 58.2277 72.1918 57.62 72.5969C57.0123 72.9979 56.3116 73.1984 55.5179 73.1984C54.906 73.1984 54.4162 73.0971 54.0482 72.8946C53.6803 72.6879 53.3971 72.4543 53.1987 72.1939C53.0003 71.9293 52.8473 71.7102 52.7398 71.5366H52.6158V76.5717H51.1524ZM52.591 68.2377C52.591 68.957 52.6964 69.5915 52.9073 70.1414C53.1181 70.687 53.4261 71.1149 53.8312 71.425C54.2363 71.7309 54.7324 71.8838 55.3194 71.8838C55.9313 71.8838 56.4418 71.7226 56.8511 71.4002C57.2645 71.0736 57.5745 70.6354 57.7812 70.0856C57.992 69.5316 58.0975 68.9156 58.0975 68.2377C58.0975 67.568 57.9941 66.9644 57.7874 66.427C57.5848 65.8854 57.2769 65.4576 56.8635 65.1434C56.4542 64.8251 55.9395 64.6659 55.3194 64.6659C54.7241 64.6659 54.2239 64.8168 53.8188 65.1186C53.4137 65.4162 53.1078 65.8338 52.9011 66.3712C52.6944 66.9045 52.591 67.5266 52.591 68.2377ZM67.4088 73.1984C66.5489 73.1984 65.7945 72.9938 65.1455 72.5845C64.5006 72.1753 63.9962 71.6027 63.6324 70.8669C63.2728 70.131 63.0929 69.2712 63.0929 68.2873C63.0929 67.2951 63.2728 66.4291 63.6324 65.6891C63.9962 64.9491 64.5006 64.3745 65.1455 63.9652C65.7945 63.556 66.5489 63.3513 67.4088 63.3513C68.2687 63.3513 69.0211 63.556 69.6659 63.9652C70.315 64.3745 70.8193 64.9491 71.179 65.6891C71.5428 66.4291 71.7247 67.2951 71.7247 68.2873C71.7247 69.2712 71.5428 70.131 71.179 70.8669C70.8193 71.6027 70.315 72.1753 69.6659 72.5845C69.0211 72.9938 68.2687 73.1984 67.4088 73.1984ZM67.4088 71.8838C68.062 71.8838 68.5994 71.7164 69.021 71.3816C69.4427 71.0467 69.7548 70.6064 69.9574 70.0607C70.16 69.5151 70.2612 68.9239 70.2612 68.2873C70.2612 67.6506 70.16 67.0574 69.9574 66.5076C69.7548 65.9578 69.4427 65.5134 69.021 65.1744C68.5994 64.8354 68.062 64.6659 67.4088 64.6659C66.7556 64.6659 66.2182 64.8354 65.7966 65.1744C65.3749 65.5134 65.0628 65.9578 64.8602 66.5076C64.6576 67.0574 64.5564 67.6506 64.5564 68.2873C64.5564 68.9239 64.6576 69.5151 64.8602 70.0607C65.0628 70.6064 65.3749 71.0467 65.7966 71.3816C66.2182 71.7164 66.7556 71.8838 67.4088 71.8838ZM75.7047 73V63.4753H77.1186V64.914H77.2178C77.3914 64.4427 77.7056 64.0603 78.1603 63.7668C78.6151 63.4733 79.1277 63.3265 79.6982 63.3265C79.8056 63.3265 79.94 63.3286 80.1012 63.3327C80.2624 63.3369 80.3844 63.3431 80.4671 63.3513V64.8395C80.4175 64.8271 80.3038 64.8085 80.126 64.7837C79.9524 64.7548 79.7684 64.7403 79.5741 64.7403C79.1111 64.7403 78.6977 64.8375 78.3339 65.0318C77.9743 65.2219 77.689 65.4865 77.4782 65.8255C77.2715 66.1604 77.1682 66.5427 77.1682 66.9727V73H75.7047ZM88.6871 63.4753V64.7155H83.7511V63.4753H88.6871ZM85.1897 61.1934H86.6531V70.2716C86.6531 70.685 86.7131 70.995 86.833 71.2017C86.957 71.4043 87.1141 71.5407 87.3042 71.611C87.4985 71.6771 87.7032 71.7102 87.9181 71.7102C88.0794 71.7102 88.2116 71.7019 88.315 71.6854C88.4183 71.6647 88.501 71.6482 88.563 71.6358L88.8607 72.9504C88.7615 72.9876 88.623 73.0248 88.4452 73.062C88.2675 73.1033 88.0422 73.124 87.7693 73.124C87.3559 73.124 86.9508 73.0351 86.5539 72.8574C86.1612 72.6796 85.8346 72.4088 85.5742 72.0451C85.3179 71.6813 85.1897 71.2224 85.1897 70.6684V61.1934ZM179.932 105.475V106.716H174.798V105.475H179.932ZM176.336 115V104.161C176.336 103.615 176.464 103.16 176.72 102.797C176.977 102.433 177.309 102.16 177.719 101.978C178.128 101.796 178.56 101.705 179.015 101.705C179.374 101.705 179.668 101.734 179.895 101.792C180.123 101.85 180.292 101.904 180.404 101.953L179.982 103.218C179.908 103.193 179.804 103.162 179.672 103.125C179.544 103.088 179.374 103.069 179.164 103.069C178.68 103.069 178.331 103.191 178.116 103.435C177.905 103.679 177.799 104.037 177.799 104.508V115H176.336ZM189.732 111.106V105.475H191.196V115H189.732V113.388H189.633C189.41 113.871 189.062 114.283 188.591 114.622C188.12 114.957 187.525 115.124 186.805 115.124C186.21 115.124 185.681 114.994 185.218 114.733C184.755 114.469 184.391 114.072 184.126 113.543C183.862 113.009 183.73 112.338 183.73 111.527V105.475H185.193V111.428C185.193 112.123 185.387 112.677 185.776 113.09C186.169 113.504 186.669 113.71 187.277 113.71C187.64 113.71 188.01 113.617 188.387 113.431C188.767 113.245 189.085 112.96 189.341 112.575C189.602 112.191 189.732 111.701 189.732 111.106ZM197.086 109.27V115H195.622V105.475H197.036V106.964H197.16C197.383 106.48 197.722 106.091 198.177 105.798C198.632 105.5 199.219 105.351 199.938 105.351C200.583 105.351 201.147 105.484 201.631 105.748C202.115 106.009 202.491 106.405 202.759 106.939C203.028 107.468 203.162 108.138 203.162 108.948V115H201.699V109.047C201.699 108.299 201.505 107.716 201.116 107.298C200.728 106.877 200.194 106.666 199.516 106.666C199.049 106.666 198.632 106.767 198.264 106.97C197.9 107.172 197.613 107.468 197.402 107.857C197.191 108.245 197.086 108.716 197.086 109.27ZM211.452 115.198C210.559 115.198 209.79 114.988 209.145 114.566C208.501 114.144 208.004 113.563 207.657 112.823C207.31 112.083 207.136 111.238 207.136 110.287C207.136 109.32 207.314 108.466 207.67 107.726C208.029 106.982 208.53 106.401 209.17 105.984C209.815 105.562 210.568 105.351 211.427 105.351C212.097 105.351 212.701 105.475 213.238 105.723C213.776 105.971 214.216 106.319 214.559 106.765C214.902 107.212 215.115 107.732 215.198 108.328H213.734C213.623 107.894 213.375 107.509 212.99 107.174C212.61 106.835 212.097 106.666 211.452 106.666C210.882 106.666 210.382 106.815 209.952 107.112C209.526 107.406 209.193 107.821 208.953 108.359C208.718 108.892 208.6 109.518 208.6 110.238C208.6 110.974 208.716 111.614 208.947 112.16C209.183 112.706 209.513 113.129 209.939 113.431C210.369 113.733 210.873 113.884 211.452 113.884C211.833 113.884 212.178 113.818 212.488 113.685C212.798 113.553 213.06 113.363 213.275 113.115C213.49 112.867 213.643 112.569 213.734 112.222H215.198C215.115 112.784 214.91 113.291 214.584 113.741C214.261 114.188 213.833 114.543 213.3 114.808C212.771 115.068 212.155 115.198 211.452 115.198ZM223.225 105.475V106.716H218.289V105.475H223.225ZM219.728 103.193H221.191V112.272C221.191 112.685 221.251 112.995 221.371 113.202C221.495 113.404 221.652 113.541 221.843 113.611C222.037 113.677 222.241 113.71 222.456 113.71C222.618 113.71 222.75 113.702 222.853 113.685C222.957 113.665 223.039 113.648 223.101 113.636L223.399 114.95C223.3 114.988 223.161 115.025 222.984 115.062C222.806 115.103 222.58 115.124 222.308 115.124C221.894 115.124 221.489 115.035 221.092 114.857C220.699 114.68 220.373 114.409 220.112 114.045C219.856 113.681 219.728 113.222 219.728 112.668V103.193ZM227.173 115V105.475H228.636V115H227.173ZM227.917 103.888C227.632 103.888 227.386 103.791 227.179 103.596C226.977 103.402 226.875 103.169 226.875 102.896C226.875 102.623 226.977 102.389 227.179 102.195C227.386 102.001 227.632 101.904 227.917 101.904C228.202 101.904 228.446 102.001 228.649 102.195C228.855 102.389 228.959 102.623 228.959 102.896C228.959 103.169 228.855 103.402 228.649 103.596C228.446 103.791 228.202 103.888 227.917 103.888ZM236.932 115.198C236.072 115.198 235.318 114.994 234.669 114.585C234.024 114.175 233.52 113.603 233.156 112.867C232.796 112.131 232.616 111.271 232.616 110.287C232.616 109.295 232.796 108.429 233.156 107.689C233.52 106.949 234.024 106.374 234.669 105.965C235.318 105.556 236.072 105.351 236.932 105.351C237.792 105.351 238.544 105.556 239.189 105.965C239.838 106.374 240.343 106.949 240.702 107.689C241.066 108.429 241.248 109.295 241.248 110.287C241.248 111.271 241.066 112.131 240.702 112.867C240.343 113.603 239.838 114.175 239.189 114.585C238.544 114.994 237.792 115.198 236.932 115.198ZM236.932 113.884C237.585 113.884 238.123 113.716 238.544 113.382C238.966 113.047 239.278 112.606 239.481 112.061C239.683 111.515 239.785 110.924 239.785 110.287C239.785 109.651 239.683 109.057 239.481 108.508C239.278 107.958 238.966 107.513 238.544 107.174C238.123 106.835 237.585 106.666 236.932 106.666C236.279 106.666 235.742 106.835 235.32 107.174C234.898 107.513 234.586 107.958 234.384 108.508C234.181 109.057 234.08 109.651 234.08 110.287C234.08 110.924 234.181 111.515 234.384 112.061C234.586 112.606 234.898 113.047 235.32 113.382C235.742 113.716 236.279 113.884 236.932 113.884ZM246.692 109.27V115H245.228V105.475H246.642V106.964H246.766C246.989 106.48 247.328 106.091 247.783 105.798C248.238 105.5 248.825 105.351 249.544 105.351C250.189 105.351 250.753 105.484 251.237 105.748C251.721 106.009 252.097 106.405 252.365 106.939C252.634 107.468 252.769 108.138 252.769 108.948V115H251.305V109.047C251.305 108.299 251.111 107.716 250.722 107.298C250.334 106.877 249.8 106.666 249.122 106.666C248.655 106.666 248.238 106.767 247.87 106.97C247.506 107.172 247.219 107.468 247.008 107.857C246.797 108.245 246.692 108.716 246.692 109.27Z" fill="#006AD3"/>
<path d="M99.2919 73V63.4753H100.706V64.914H100.805C100.979 64.4427 101.293 64.0603 101.747 63.7668C102.202 63.4733 102.715 63.3265 103.285 63.3265C103.393 63.3265 103.527 63.3286 103.688 63.3327C103.85 63.3369 103.972 63.3431 104.054 63.3513V64.8395C104.005 64.8271 103.891 64.8085 103.713 64.7837C103.54 64.7548 103.356 64.7403 103.161 64.7403C102.698 64.7403 102.285 64.8375 101.921 65.0318C101.561 65.2219 101.276 65.4865 101.065 65.8255C100.859 66.1604 100.755 66.5427 100.755 66.9727V73H99.2919ZM111.239 73.1984C110.321 73.1984 109.529 72.9959 108.864 72.5907C108.202 72.1815 107.692 71.611 107.332 70.8793C106.977 70.1434 106.799 69.2877 106.799 68.3121C106.799 67.3365 106.977 66.4766 107.332 65.7325C107.692 64.9842 108.192 64.4013 108.833 63.9838C109.478 63.5622 110.23 63.3513 111.09 63.3513C111.586 63.3513 112.076 63.434 112.559 63.5994C113.043 63.7647 113.483 64.0334 113.88 64.4055C114.277 64.7734 114.593 65.2612 114.829 65.8689C115.065 66.4766 115.182 67.2248 115.182 68.1137V68.7337H107.841V67.4688H113.694C113.694 66.9313 113.587 66.4518 113.372 66.0301C113.161 65.6085 112.859 65.2757 112.466 65.0318C112.078 64.7879 111.619 64.6659 111.09 64.6659C110.507 64.6659 110.003 64.8106 109.577 65.1C109.155 65.3852 108.831 65.7573 108.603 66.2162C108.376 66.675 108.262 67.167 108.262 67.692V68.5353C108.262 69.2546 108.386 69.8644 108.634 70.3646C108.886 70.8607 109.236 71.2389 109.682 71.4994C110.129 71.7557 110.648 71.8838 111.239 71.8838C111.623 71.8838 111.97 71.8301 112.28 71.7226C112.595 71.611 112.865 71.4456 113.093 71.2265C113.32 71.0033 113.496 70.7263 113.62 70.3956L115.034 70.7925C114.885 71.272 114.635 71.6937 114.283 72.0575C113.932 72.4171 113.498 72.6982 112.981 72.9008C112.464 73.0992 111.884 73.1984 111.239 73.1984ZM121.958 73.2232C121.354 73.2232 120.806 73.1096 120.314 72.8822C119.822 72.6507 119.432 72.3179 119.142 71.8838C118.853 71.4456 118.708 70.9165 118.708 70.2964C118.708 69.7507 118.816 69.3084 119.031 68.9694C119.246 68.6263 119.533 68.3576 119.893 68.1633C120.252 67.969 120.649 67.8243 121.083 67.7292C121.522 67.63 121.962 67.5514 122.404 67.4936C122.983 67.4191 123.452 67.3633 123.812 67.3261C124.176 67.2848 124.44 67.2166 124.605 67.1215C124.775 67.0264 124.86 66.8611 124.86 66.6254V66.5758C124.86 65.964 124.692 65.4886 124.357 65.1496C124.027 64.8106 123.524 64.6411 122.851 64.6411C122.152 64.6411 121.604 64.7941 121.207 65.1C120.81 65.4059 120.531 65.7325 120.37 66.0797L118.981 65.5837C119.229 65.0049 119.56 64.5543 119.973 64.2319C120.391 63.9053 120.846 63.6779 121.338 63.5498C121.834 63.4175 122.321 63.3513 122.801 63.3513C123.107 63.3513 123.458 63.3885 123.855 63.4629C124.256 63.5332 124.643 63.68 125.015 63.9032C125.391 64.1264 125.703 64.4634 125.951 64.914C126.199 65.3646 126.323 65.9681 126.323 66.7246V73H124.86V71.7102H124.785C124.686 71.9169 124.521 72.1381 124.289 72.3737C124.058 72.6093 123.75 72.8098 123.365 72.9752C122.981 73.1406 122.512 73.2232 121.958 73.2232ZM122.181 71.9086C122.76 71.9086 123.247 71.7949 123.644 71.5676C124.045 71.3402 124.347 71.0467 124.55 70.687C124.756 70.3274 124.86 69.9491 124.86 69.5523V68.2129C124.798 68.2873 124.661 68.3555 124.45 68.4175C124.244 68.4754 124.004 68.527 123.731 68.5725C123.462 68.6139 123.2 68.6511 122.944 68.6841C122.691 68.7131 122.487 68.7379 122.33 68.7585C121.949 68.8082 121.594 68.8888 121.263 69.0004C120.937 69.1079 120.672 69.2712 120.469 69.4903C120.271 69.7052 120.172 69.9987 120.172 70.3708C120.172 70.8793 120.36 71.2637 120.736 71.5242C121.116 71.7805 121.598 71.9086 122.181 71.9086ZM134.61 73.1984C133.717 73.1984 132.948 72.9876 132.303 72.5659C131.658 72.1443 131.162 71.5634 130.815 70.8235C130.468 70.0835 130.294 69.2381 130.294 68.2873C130.294 67.3199 130.472 66.4663 130.827 65.7263C131.187 64.9822 131.687 64.4013 132.328 63.9838C132.973 63.5622 133.725 63.3513 134.585 63.3513C135.255 63.3513 135.858 63.4753 136.396 63.7234C136.933 63.9714 137.373 64.3187 137.716 64.7651C138.06 65.2116 138.272 65.7325 138.355 66.3278H136.892C136.78 65.8937 136.532 65.5093 136.148 65.1744C135.767 64.8354 135.255 64.6659 134.61 64.6659C134.039 64.6659 133.539 64.8147 133.109 65.1124C132.683 65.4059 132.351 65.8214 132.111 66.3588C131.875 66.8921 131.757 67.5184 131.757 68.2377C131.757 68.9735 131.873 69.6143 132.105 70.16C132.34 70.7056 132.671 71.1294 133.097 71.4312C133.527 71.7329 134.031 71.8838 134.61 71.8838C134.99 71.8838 135.335 71.8177 135.645 71.6854C135.955 71.5531 136.218 71.3629 136.433 71.1149C136.648 70.8669 136.801 70.5692 136.892 70.222H138.355C138.272 70.7842 138.068 71.2906 137.741 71.7412C137.419 72.1877 136.991 72.5432 136.458 72.8078C135.928 73.0682 135.313 73.1984 134.61 73.1984ZM146.383 63.4753V64.7155H141.447V63.4753H146.383ZM142.886 61.1934H144.349V70.2716C144.349 70.685 144.409 70.995 144.529 71.2017C144.653 71.4043 144.81 71.5407 145 71.611C145.194 71.6771 145.399 71.7102 145.614 71.7102C145.775 71.7102 145.907 71.7019 146.011 71.6854C146.114 71.6647 146.197 71.6482 146.259 71.6358L146.556 72.9504C146.457 72.9876 146.319 73.0248 146.141 73.062C145.963 73.1033 145.738 73.124 145.465 73.124C145.052 73.124 144.647 73.0351 144.25 72.8574C143.857 72.6796 143.53 72.4088 143.27 72.0451C143.014 71.6813 142.886 71.2224 142.886 70.6684V61.1934Z" fill="white"/>
<path d="M161.229 63.4753V64.7155H156.095V63.4753H161.229ZM157.633 73V62.1607C157.633 61.6151 157.761 61.1603 158.017 60.7965C158.273 60.4327 158.606 60.1599 159.015 59.978C159.425 59.7961 159.857 59.7052 160.311 59.7052C160.671 59.7052 160.965 59.7341 161.192 59.792C161.419 59.8499 161.589 59.9036 161.7 59.9532L161.279 61.2182C161.204 61.1934 161.101 61.1624 160.969 61.1252C160.841 61.088 160.671 61.0694 160.46 61.0694C159.977 61.0694 159.627 61.1913 159.412 61.4352C159.201 61.6791 159.096 62.0367 159.096 62.508V73H157.633ZM165.026 73V63.4753H166.44V64.914H166.539C166.713 64.4427 167.027 64.0603 167.482 63.7668C167.937 63.4733 168.449 63.3265 169.02 63.3265C169.127 63.3265 169.262 63.3286 169.423 63.3327C169.584 63.3369 169.706 63.3431 169.789 63.3513V64.8395C169.739 64.8271 169.625 64.8085 169.448 64.7837C169.274 64.7548 169.09 64.7403 168.896 64.7403C168.433 64.7403 168.019 64.8375 167.656 65.0318C167.296 65.2219 167.011 65.4865 166.8 65.8255C166.593 66.1604 166.49 66.5427 166.49 66.9727V73H165.026ZM176.849 73.1984C175.989 73.1984 175.235 72.9938 174.586 72.5845C173.941 72.1753 173.436 71.6027 173.073 70.8669C172.713 70.131 172.533 69.2712 172.533 68.2873C172.533 67.2951 172.713 66.4291 173.073 65.6891C173.436 64.9491 173.941 64.3745 174.586 63.9652C175.235 63.556 175.989 63.3513 176.849 63.3513C177.709 63.3513 178.461 63.556 179.106 63.9652C179.755 64.3745 180.26 64.9491 180.619 65.6891C180.983 66.4291 181.165 67.2951 181.165 68.2873C181.165 69.2712 180.983 70.131 180.619 70.8669C180.26 71.6027 179.755 72.1753 179.106 72.5845C178.461 72.9938 177.709 73.1984 176.849 73.1984ZM176.849 71.8838C177.502 71.8838 178.04 71.7164 178.461 71.3816C178.883 71.0467 179.195 70.6064 179.398 70.0607C179.6 69.5151 179.701 68.9239 179.701 68.2873C179.701 67.6506 179.6 67.0574 179.398 66.5076C179.195 65.9578 178.883 65.5134 178.461 65.1744C178.04 64.8354 177.502 64.6659 176.849 64.6659C176.196 64.6659 175.658 64.8354 175.237 65.1744C174.815 65.5134 174.503 65.9578 174.3 66.5076C174.098 67.0574 173.997 67.6506 173.997 68.2873C173.997 68.9239 174.098 69.5151 174.3 70.0607C174.503 70.6064 174.815 71.0467 175.237 71.3816C175.658 71.7164 176.196 71.8838 176.849 71.8838ZM185.145 73V63.4753H186.559V64.9636H186.683C186.881 64.4551 187.202 64.0603 187.644 63.7792C188.086 63.4939 188.618 63.3513 189.238 63.3513C189.866 63.3513 190.389 63.4939 190.806 63.7792C191.228 64.0603 191.557 64.4551 191.792 64.9636H191.892C192.136 64.4716 192.501 64.081 192.989 63.7916C193.477 63.4981 194.062 63.3513 194.744 63.3513C195.596 63.3513 196.292 63.618 196.834 64.1512C197.375 64.6804 197.646 65.5051 197.646 66.6254V73H196.183V66.6254C196.183 65.9226 195.99 65.4204 195.606 65.1186C195.222 64.8168 194.769 64.6659 194.248 64.6659C193.578 64.6659 193.059 64.8685 192.692 65.2736C192.324 65.6746 192.14 66.1831 192.14 66.799V73H190.651V66.4766C190.651 65.9351 190.476 65.4989 190.124 65.1682C189.773 64.8333 189.32 64.6659 188.766 64.6659C188.386 64.6659 188.031 64.7672 187.7 64.9698C187.373 65.1723 187.109 65.4534 186.906 65.8131C186.708 66.1686 186.608 66.5799 186.608 67.0471V73H185.145Z" fill="#CB2424"/>
<path d="M209.99 60.3005V64.6659H208.626V60.3005H209.99ZM214.342 73V63.4753H215.756V64.914H215.856C216.029 64.4427 216.343 64.0603 216.798 63.7668C217.253 63.4733 217.765 63.3265 218.336 63.3265C218.443 63.3265 218.578 63.3286 218.739 63.3327C218.9 63.3369 219.022 63.3431 219.105 63.3513V64.8395C219.055 64.8271 218.942 64.8085 218.764 64.7837C218.59 64.7548 218.406 64.7403 218.212 64.7403C217.749 64.7403 217.335 64.8375 216.972 65.0318C216.612 65.2219 216.327 65.4865 216.116 65.8255C215.909 66.1604 215.806 66.5427 215.806 66.9727V73H214.342ZM226.289 73.1984C225.371 73.1984 224.58 72.9959 223.914 72.5907C223.253 72.1815 222.742 71.611 222.383 70.8793C222.027 70.1434 221.849 69.2877 221.849 68.3121C221.849 67.3365 222.027 66.4766 222.383 65.7325C222.742 64.9842 223.243 64.4013 223.883 63.9838C224.528 63.5622 225.281 63.3513 226.14 63.3513C226.636 63.3513 227.126 63.434 227.61 63.5994C228.094 63.7647 228.534 64.0334 228.931 64.4055C229.328 64.7734 229.644 65.2612 229.88 65.8689C230.115 66.4766 230.233 67.2248 230.233 68.1137V68.7337H222.891V67.4688H228.745C228.745 66.9313 228.637 66.4518 228.422 66.0301C228.212 65.6085 227.91 65.2757 227.517 65.0318C227.128 64.7879 226.67 64.6659 226.14 64.6659C225.558 64.6659 225.053 64.8106 224.627 65.1C224.206 65.3852 223.881 65.7573 223.654 66.2162C223.426 66.675 223.313 67.167 223.313 67.692V68.5353C223.313 69.2546 223.437 69.8644 223.685 70.3646C223.937 70.8607 224.286 71.2389 224.733 71.4994C225.179 71.7557 225.698 71.8838 226.289 71.8838C226.674 71.8838 227.021 71.8301 227.331 71.7226C227.645 71.611 227.916 71.4456 228.143 71.2265C228.371 71.0033 228.546 70.7263 228.67 70.3956L230.084 70.7925C229.935 71.272 229.685 71.6937 229.334 72.0575C228.983 72.4171 228.548 72.6982 228.032 72.9008C227.515 73.0992 226.934 73.1984 226.289 73.1984ZM237.008 73.2232C236.405 73.2232 235.857 73.1096 235.365 72.8822C234.873 72.6507 234.482 72.3179 234.193 71.8838C233.904 71.4456 233.759 70.9165 233.759 70.2964C233.759 69.7507 233.866 69.3084 234.081 68.9694C234.296 68.6263 234.584 68.3576 234.943 68.1633C235.303 67.969 235.7 67.8243 236.134 67.7292C236.572 67.63 237.012 67.5514 237.455 67.4936C238.033 67.4191 238.503 67.3633 238.862 67.3261C239.226 67.2848 239.491 67.2166 239.656 67.1215C239.826 67.0264 239.91 66.8611 239.91 66.6254V66.5758C239.91 65.964 239.743 65.4886 239.408 65.1496C239.077 64.8106 238.575 64.6411 237.901 64.6411C237.202 64.6411 236.655 64.7941 236.258 65.1C235.861 65.4059 235.582 65.7325 235.421 66.0797L234.032 65.5837C234.28 65.0049 234.611 64.5543 235.024 64.2319C235.441 63.9053 235.896 63.6779 236.388 63.5498C236.884 63.4175 237.372 63.3513 237.852 63.3513C238.157 63.3513 238.509 63.3885 238.906 63.4629C239.307 63.5332 239.693 63.68 240.065 63.9032C240.441 64.1264 240.754 64.4634 241.002 64.914C241.25 65.3646 241.374 65.9681 241.374 66.7246V73H239.91V71.7102H239.836C239.737 71.9169 239.571 72.1381 239.34 72.3737C239.108 72.6093 238.8 72.8098 238.416 72.9752C238.031 73.1406 237.562 73.2232 237.008 73.2232ZM237.231 71.9086C237.81 71.9086 238.298 71.7949 238.695 71.5676C239.096 71.3402 239.398 71.0467 239.6 70.687C239.807 70.3274 239.91 69.9491 239.91 69.5523V68.2129C239.848 68.2873 239.712 68.3555 239.501 68.4175C239.294 68.4754 239.055 68.527 238.782 68.5725C238.513 68.6139 238.25 68.6511 237.994 68.6841C237.742 68.7131 237.537 68.7379 237.38 68.7585C237 68.8082 236.644 68.8888 236.314 69.0004C235.987 69.1079 235.723 69.2712 235.52 69.4903C235.322 69.7052 235.222 69.9987 235.222 70.3708C235.222 70.8793 235.41 71.2637 235.787 71.5242C236.167 71.7805 236.649 71.9086 237.231 71.9086ZM249.66 73.1984C248.767 73.1984 247.998 72.9876 247.354 72.5659C246.709 72.1443 246.213 71.5634 245.865 70.8235C245.518 70.0835 245.344 69.2381 245.344 68.2873C245.344 67.3199 245.522 66.4663 245.878 65.7263C246.237 64.9822 246.738 64.4013 247.378 63.9838C248.023 63.5622 248.776 63.3513 249.636 63.3513C250.305 63.3513 250.909 63.4753 251.446 63.7234C251.984 63.9714 252.424 64.3187 252.767 64.7651C253.11 65.2116 253.323 65.7325 253.406 66.3278H251.942C251.831 65.8937 251.583 65.5093 251.198 65.1744C250.818 64.8354 250.305 64.6659 249.66 64.6659C249.09 64.6659 248.59 64.8147 248.16 65.1124C247.734 65.4059 247.401 65.8214 247.161 66.3588C246.926 66.8921 246.808 67.5184 246.808 68.2377C246.808 68.9735 246.924 69.6143 247.155 70.16C247.391 70.7056 247.721 71.1294 248.147 71.4312C248.577 71.7329 249.082 71.8838 249.66 71.8838C250.041 71.8838 250.386 71.8177 250.696 71.6854C251.006 71.5531 251.268 71.3629 251.483 71.1149C251.698 70.8669 251.851 70.5692 251.942 70.222H253.406C253.323 70.7842 253.118 71.2906 252.792 71.7412C252.469 72.1877 252.041 72.5432 251.508 72.8078C250.979 73.0682 250.363 73.1984 249.66 73.1984ZM261.433 63.4753V64.7155H256.497V63.4753H261.433ZM257.936 61.1934H259.4V70.2716C259.4 70.685 259.459 70.995 259.579 71.2017C259.703 71.4043 259.86 71.5407 260.051 71.611C260.245 71.6771 260.45 71.7102 260.665 71.7102C260.826 71.7102 260.958 71.7019 261.061 71.6854C261.165 71.6647 261.247 71.6482 261.309 71.6358L261.607 72.9504C261.508 72.9876 261.369 73.0248 261.192 73.062C261.014 73.1033 260.789 73.124 260.516 73.124C260.102 73.124 259.697 73.0351 259.3 72.8574C258.908 72.6796 258.581 72.4088 258.321 72.0451C258.064 71.6813 257.936 71.2224 257.936 70.6684V61.1934ZM266.646 60.3005V64.6659H265.282V60.3005H266.646ZM108.881 130.642C108.881 129.08 109.084 127.643 109.489 126.333C109.898 125.018 110.481 123.809 111.238 122.705H112.528C112.23 123.114 111.951 123.619 111.69 124.218C111.434 124.813 111.209 125.469 111.015 126.184C110.82 126.895 110.667 127.631 110.556 128.391C110.448 129.152 110.394 129.902 110.394 130.642C110.394 131.626 110.489 132.625 110.68 133.637C110.87 134.65 111.126 135.591 111.449 136.459C111.771 137.327 112.131 138.034 112.528 138.58H111.238C110.481 137.476 109.898 136.269 109.489 134.958C109.084 133.644 108.881 132.205 108.881 130.642ZM44.7794 172.642C44.7794 174.205 44.5747 175.644 44.1655 176.958C43.7603 178.269 43.1795 179.476 42.423 180.58H41.1332C41.4309 180.17 41.7078 179.666 41.9641 179.067C42.2246 178.471 42.4519 177.818 42.6462 177.107C42.8405 176.392 42.9914 175.654 43.0989 174.893C43.2105 174.129 43.2663 173.378 43.2663 172.642C43.2663 171.658 43.1713 170.66 42.9811 169.647C42.7909 168.634 42.5346 167.694 42.2122 166.826C41.8897 165.958 41.5301 165.251 41.1332 164.705H42.423C43.1795 165.809 43.7603 167.018 44.1655 168.333C44.5747 169.643 44.7794 171.08 44.7794 172.642Z" fill="#A526B0"/>
<path d="M32.3328 115.198C31.4151 115.198 30.6234 114.996 29.9579 114.591C29.2964 114.181 28.7859 113.611 28.4262 112.879C28.0707 112.143 27.8929 111.288 27.8929 110.312C27.8929 109.336 28.0707 108.477 28.4262 107.732C28.7859 106.984 29.2861 106.401 29.9268 105.984C30.5717 105.562 31.3241 105.351 32.184 105.351C32.6801 105.351 33.1699 105.434 33.6536 105.599C34.1373 105.765 34.5776 106.033 34.9744 106.405C35.3713 106.773 35.6875 107.261 35.9232 107.869C36.1588 108.477 36.2766 109.225 36.2766 110.114V110.734H28.9347V109.469H34.7884C34.7884 108.931 34.6809 108.452 34.4659 108.03C34.2551 107.608 33.9533 107.276 33.5606 107.032C33.172 106.788 32.7131 106.666 32.184 106.666C31.6011 106.666 31.0968 106.811 30.671 107.1C30.2493 107.385 29.9248 107.757 29.6974 108.216C29.47 108.675 29.3564 109.167 29.3564 109.692V110.535C29.3564 111.255 29.4804 111.864 29.7284 112.365C29.9806 112.861 30.3299 113.239 30.7764 113.499C31.2228 113.756 31.7417 113.884 32.3328 113.884C32.7173 113.884 33.0645 113.83 33.3746 113.723C33.6888 113.611 33.9595 113.446 34.1869 113.227C34.4143 113.003 34.59 112.726 34.714 112.396L36.1278 112.792C35.979 113.272 35.7289 113.694 35.3775 114.057C35.0261 114.417 34.592 114.698 34.0753 114.901C33.5585 115.099 32.9777 115.198 32.3328 115.198ZM41.0845 105.475L43.3665 109.37L45.6484 105.475H47.3351L44.2594 110.238L47.3351 115H45.6484L43.3665 111.304L41.0845 115H39.3979L42.4239 110.238L39.3979 105.475H41.0845ZM51.1694 118.572V105.475H52.5833V106.988H52.7569C52.8644 106.823 53.0132 106.612 53.2034 106.356C53.3977 106.095 53.6746 105.864 54.0343 105.661C54.3981 105.455 54.89 105.351 55.5101 105.351C56.3121 105.351 57.019 105.552 57.6308 105.953C58.2427 106.354 58.7201 106.922 59.0633 107.658C59.4064 108.394 59.5779 109.262 59.5779 110.262C59.5779 111.271 59.4064 112.145 59.0633 112.885C58.7201 113.621 58.2447 114.192 57.637 114.597C57.0293 114.998 56.3286 115.198 55.5349 115.198C54.9231 115.198 54.4332 115.097 54.0653 114.895C53.6974 114.688 53.4142 114.454 53.2158 114.194C53.0173 113.929 52.8644 113.71 52.7569 113.537H52.6329V118.572H51.1694ZM52.6081 110.238C52.6081 110.957 52.7135 111.592 52.9243 112.141C53.1351 112.687 53.4431 113.115 53.8483 113.425C54.2534 113.731 54.7495 113.884 55.3365 113.884C55.9483 113.884 56.4589 113.723 56.8681 113.4C57.2815 113.074 57.5916 112.635 57.7983 112.086C58.0091 111.532 58.1145 110.916 58.1145 110.238C58.1145 109.568 58.0112 108.964 57.8045 108.427C57.6019 107.885 57.2939 107.458 56.8805 107.143C56.4713 106.825 55.9566 106.666 55.3365 106.666C54.7412 106.666 54.241 106.817 53.8359 107.119C53.4307 107.416 53.1248 107.834 52.9181 108.371C52.7114 108.904 52.6081 109.527 52.6081 110.238ZM67.4259 115.198C66.566 115.198 65.8115 114.994 65.1625 114.585C64.5176 114.175 64.0133 113.603 63.6495 112.867C63.2898 112.131 63.11 111.271 63.11 110.287C63.11 109.295 63.2898 108.429 63.6495 107.689C64.0133 106.949 64.5176 106.374 65.1625 105.965C65.8115 105.556 66.566 105.351 67.4259 105.351C68.2857 105.351 69.0381 105.556 69.683 105.965C70.332 106.374 70.8364 106.949 71.196 107.689C71.5598 108.429 71.7417 109.295 71.7417 110.287C71.7417 111.271 71.5598 112.131 71.196 112.867C70.8364 113.603 70.332 114.175 69.683 114.585C69.0381 114.994 68.2857 115.198 67.4259 115.198ZM67.4259 113.884C68.079 113.884 68.6164 113.716 69.0381 113.382C69.4598 113.047 69.7719 112.606 69.9744 112.061C70.177 111.515 70.2783 110.924 70.2783 110.287C70.2783 109.651 70.177 109.057 69.9744 108.508C69.7719 107.958 69.4598 107.513 69.0381 107.174C68.6164 106.835 68.079 106.666 67.4259 106.666C66.7727 106.666 66.2353 106.835 65.8136 107.174C65.3919 107.513 65.0798 107.958 64.8773 108.508C64.6747 109.057 64.5734 109.651 64.5734 110.287C64.5734 110.924 64.6747 111.515 64.8773 112.061C65.0798 112.606 65.3919 113.047 65.8136 113.382C66.2353 113.716 66.7727 113.884 67.4259 113.884ZM75.7218 115V105.475H77.1356V106.914H77.2348C77.4085 106.443 77.7226 106.06 78.1774 105.767C78.6321 105.473 79.1447 105.327 79.7152 105.327C79.8227 105.327 79.957 105.329 80.1183 105.333C80.2795 105.337 80.4014 105.343 80.4841 105.351V106.84C80.4345 106.827 80.3208 106.809 80.1431 106.784C79.9694 106.755 79.7855 106.74 79.5912 106.74C79.1282 106.74 78.7148 106.837 78.351 107.032C77.9913 107.222 77.7061 107.487 77.4953 107.826C77.2886 108.16 77.1852 108.543 77.1852 108.973V115H75.7218ZM88.7041 105.475V106.716H83.7681V105.475H88.7041ZM85.2068 103.193H86.6702V112.272C86.6702 112.685 86.7301 112.995 86.85 113.202C86.974 113.404 87.1311 113.541 87.3213 113.611C87.5156 113.677 87.7202 113.71 87.9352 113.71C88.0964 113.71 88.2287 113.702 88.332 113.685C88.4354 113.665 88.5181 113.648 88.5801 113.636L88.8777 114.95C88.7785 114.988 88.64 115.025 88.4623 115.062C88.2845 115.103 88.0592 115.124 87.7864 115.124C87.373 115.124 86.9678 115.035 86.571 114.857C86.1783 114.68 85.8517 114.409 85.5912 114.045C85.3349 113.681 85.2068 113.222 85.2068 112.668V103.193ZM102.906 115.198C102.112 115.198 101.411 114.998 100.803 114.597C100.196 114.192 99.7203 113.621 99.3772 112.885C99.0341 112.145 98.8625 111.271 98.8625 110.262C98.8625 109.262 99.0341 108.394 99.3772 107.658C99.7203 106.922 100.198 106.354 100.81 105.953C101.421 105.552 102.128 105.351 102.93 105.351C103.55 105.351 104.04 105.455 104.4 105.661C104.764 105.864 105.041 106.095 105.231 106.356C105.425 106.612 105.576 106.823 105.684 106.988H105.808V102.3H107.271V115H105.857V113.537H105.684C105.576 113.71 105.423 113.929 105.225 114.194C105.026 114.454 104.743 114.688 104.375 114.895C104.007 115.097 103.517 115.198 102.906 115.198ZM103.104 113.884C103.691 113.884 104.187 113.731 104.592 113.425C104.997 113.115 105.305 112.687 105.516 112.141C105.727 111.592 105.832 110.957 105.832 110.238C105.832 109.527 105.729 108.904 105.522 108.371C105.316 107.834 105.01 107.416 104.605 107.119C104.199 106.817 103.699 106.666 103.104 106.666C102.484 106.666 101.967 106.825 101.554 107.143C101.144 107.458 100.836 107.885 100.63 108.427C100.427 108.964 100.326 109.568 100.326 110.238C100.326 110.916 100.429 111.532 100.636 112.086C100.847 112.635 101.157 113.074 101.566 113.4C101.98 113.723 102.492 113.884 103.104 113.884ZM115.894 115.198C114.976 115.198 114.185 114.996 113.519 114.591C112.858 114.181 112.347 113.611 111.987 112.879C111.632 112.143 111.454 111.288 111.454 110.312C111.454 109.336 111.632 108.477 111.987 107.732C112.347 106.984 112.847 106.401 113.488 105.984C114.133 105.562 114.885 105.351 115.745 105.351C116.241 105.351 116.731 105.434 117.215 105.599C117.699 105.765 118.139 106.033 118.536 106.405C118.933 106.773 119.249 107.261 119.484 107.869C119.72 108.477 119.838 109.225 119.838 110.114V110.734H112.496V109.469H118.35C118.35 108.931 118.242 108.452 118.027 108.03C117.816 107.608 117.515 107.276 117.122 107.032C116.733 106.788 116.274 106.666 115.745 106.666C115.162 106.666 114.658 106.811 114.232 107.1C113.811 107.385 113.486 107.757 113.259 108.216C113.031 108.675 112.918 109.167 112.918 109.692V110.535C112.918 111.255 113.042 111.864 113.29 112.365C113.542 112.861 113.891 113.239 114.338 113.499C114.784 113.756 115.303 113.884 115.894 113.884C116.278 113.884 116.626 113.83 116.936 113.723C117.25 113.611 117.521 113.446 117.748 113.227C117.975 113.003 118.151 112.726 118.275 112.396L119.689 112.792C119.54 113.272 119.29 113.694 118.939 114.057C118.587 114.417 118.153 114.698 117.637 114.901C117.12 115.099 116.539 115.198 115.894 115.198ZM128.052 105.475V106.716H122.917V105.475H128.052ZM124.455 115V104.161C124.455 103.615 124.583 103.16 124.84 102.797C125.096 102.433 125.429 102.16 125.838 101.978C126.247 101.796 126.679 101.705 127.134 101.705C127.494 101.705 127.787 101.734 128.014 101.792C128.242 101.85 128.411 101.904 128.523 101.953L128.101 103.218C128.027 103.193 127.923 103.162 127.791 103.125C127.663 103.088 127.494 103.069 127.283 103.069C126.799 103.069 126.45 103.191 126.235 103.435C126.024 103.679 125.918 104.037 125.918 104.508V115H124.455ZM134.379 115.223C133.775 115.223 133.227 115.11 132.736 114.882C132.244 114.651 131.853 114.318 131.564 113.884C131.274 113.446 131.129 112.916 131.129 112.296C131.129 111.751 131.237 111.308 131.452 110.969C131.667 110.626 131.954 110.358 132.314 110.163C132.673 109.969 133.07 109.824 133.504 109.729C133.943 109.63 134.383 109.551 134.825 109.494C135.404 109.419 135.873 109.363 136.233 109.326C136.597 109.285 136.861 109.217 137.027 109.121C137.196 109.026 137.281 108.861 137.281 108.625V108.576C137.281 107.964 137.113 107.489 136.779 107.15C136.448 106.811 135.946 106.641 135.272 106.641C134.573 106.641 134.025 106.794 133.628 107.1C133.232 107.406 132.953 107.732 132.791 108.08L131.402 107.584C131.65 107.005 131.981 106.554 132.394 106.232C132.812 105.905 133.267 105.678 133.759 105.55C134.255 105.417 134.743 105.351 135.222 105.351C135.528 105.351 135.879 105.389 136.276 105.463C136.677 105.533 137.064 105.68 137.436 105.903C137.812 106.126 138.124 106.463 138.372 106.914C138.62 107.365 138.744 107.968 138.744 108.725V115H137.281V113.71H137.206C137.107 113.917 136.942 114.138 136.71 114.374C136.479 114.609 136.171 114.81 135.786 114.975C135.402 115.141 134.933 115.223 134.379 115.223ZM134.602 113.909C135.181 113.909 135.669 113.795 136.065 113.568C136.466 113.34 136.768 113.047 136.971 112.687C137.177 112.327 137.281 111.949 137.281 111.552V110.213C137.219 110.287 137.082 110.355 136.872 110.417C136.665 110.475 136.425 110.527 136.152 110.573C135.884 110.614 135.621 110.651 135.365 110.684C135.113 110.713 134.908 110.738 134.751 110.759C134.37 110.808 134.015 110.889 133.684 111C133.358 111.108 133.093 111.271 132.891 111.49C132.692 111.705 132.593 111.999 132.593 112.371C132.593 112.879 132.781 113.264 133.157 113.524C133.537 113.78 134.019 113.909 134.602 113.909ZM149.164 111.106V105.475H150.627V115H149.164V113.388H149.065C148.842 113.871 148.494 114.283 148.023 114.622C147.552 114.957 146.956 115.124 146.237 115.124C145.642 115.124 145.113 114.994 144.65 114.733C144.187 114.469 143.823 114.072 143.558 113.543C143.294 113.009 143.161 112.338 143.161 111.527V105.475H144.625V111.428C144.625 112.123 144.819 112.677 145.208 113.09C145.601 113.504 146.101 113.71 146.708 113.71C147.072 113.71 147.442 113.617 147.818 113.431C148.199 113.245 148.517 112.96 148.773 112.575C149.034 112.191 149.164 111.701 149.164 111.106ZM156.517 102.3V115H155.054V102.3H156.517ZM165.086 105.475V106.716H160.15V105.475H165.086ZM161.589 103.193H163.052V112.272C163.052 112.685 163.112 112.995 163.232 113.202C163.356 113.404 163.513 113.541 163.703 113.611C163.898 113.677 164.102 113.71 164.317 113.71C164.478 113.71 164.611 113.702 164.714 113.685C164.817 113.665 164.9 113.648 164.962 113.636L165.26 114.95C165.161 114.988 165.022 115.025 164.844 115.062C164.667 115.103 164.441 115.124 164.168 115.124C163.755 115.124 163.35 115.035 162.953 114.857C162.56 114.68 162.234 114.409 161.973 114.045C161.717 113.681 161.589 113.222 161.589 112.668V103.193Z" fill="#CB2424"/>
<path d="M267.691 118.77C266.984 118.77 266.376 118.679 265.868 118.497C265.359 118.32 264.936 118.084 264.597 117.79C264.262 117.501 263.995 117.191 263.797 116.86L264.962 116.042C265.095 116.215 265.262 116.414 265.465 116.637C265.667 116.864 265.944 117.061 266.296 117.226C266.651 117.396 267.116 117.48 267.691 117.48C268.46 117.48 269.094 117.294 269.595 116.922C270.095 116.55 270.345 115.967 270.345 115.174V113.239H270.221C270.113 113.413 269.96 113.628 269.762 113.884C269.568 114.136 269.287 114.361 268.919 114.56C268.555 114.754 268.063 114.851 267.443 114.851C266.674 114.851 265.983 114.669 265.372 114.305C264.764 113.942 264.282 113.413 263.927 112.718C263.575 112.024 263.4 111.18 263.4 110.188C263.4 109.212 263.571 108.363 263.914 107.639C264.258 106.912 264.735 106.35 265.347 105.953C265.959 105.552 266.666 105.351 267.468 105.351C268.088 105.351 268.58 105.455 268.943 105.661C269.311 105.864 269.592 106.095 269.787 106.356C269.985 106.612 270.138 106.823 270.246 106.988H270.394V105.475H271.808V115.273C271.808 116.091 271.622 116.757 271.25 117.27C270.882 117.786 270.386 118.165 269.762 118.404C269.142 118.648 268.451 118.77 267.691 118.77ZM267.641 113.537C268.228 113.537 268.724 113.402 269.129 113.134C269.535 112.865 269.843 112.478 270.053 111.974C270.264 111.47 270.37 110.866 270.37 110.163C270.37 109.477 270.266 108.871 270.06 108.346C269.853 107.821 269.547 107.41 269.142 107.112C268.737 106.815 268.236 106.666 267.641 106.666C267.021 106.666 266.504 106.823 266.091 107.137C265.682 107.451 265.374 107.873 265.167 108.402C264.964 108.931 264.863 109.518 264.863 110.163C264.863 110.825 264.967 111.41 265.173 111.918C265.384 112.422 265.694 112.819 266.103 113.109C266.517 113.394 267.029 113.537 267.641 113.537ZM280.103 115.198C279.243 115.198 278.488 114.994 277.839 114.585C277.194 114.175 276.69 113.603 276.326 112.867C275.967 112.131 275.787 111.271 275.787 110.287C275.787 109.295 275.967 108.429 276.326 107.689C276.69 106.949 277.194 106.374 277.839 105.965C278.488 105.556 279.243 105.351 280.103 105.351C280.963 105.351 281.715 105.556 282.36 105.965C283.009 106.374 283.513 106.949 283.873 107.689C284.237 108.429 284.419 109.295 284.419 110.287C284.419 111.271 284.237 112.131 283.873 112.867C283.513 113.603 283.009 114.175 282.36 114.585C281.715 114.994 280.963 115.198 280.103 115.198ZM280.103 113.884C280.756 113.884 281.293 113.716 281.715 113.382C282.137 113.047 282.449 112.606 282.651 112.061C282.854 111.515 282.955 110.924 282.955 110.287C282.955 109.651 282.854 109.057 282.651 108.508C282.449 107.958 282.137 107.513 281.715 107.174C281.293 106.835 280.756 106.666 280.103 106.666C279.449 106.666 278.912 106.835 278.49 107.174C278.069 107.513 277.757 107.958 277.554 108.508C277.351 109.057 277.25 109.651 277.25 110.287C277.25 110.924 277.351 111.515 277.554 112.061C277.757 112.606 278.069 113.047 278.49 113.382C278.912 113.716 279.449 113.884 280.103 113.884ZM288.399 115V105.475H289.812V106.964H289.936C290.135 106.455 290.455 106.06 290.898 105.779C291.34 105.494 291.871 105.351 292.491 105.351C293.12 105.351 293.643 105.494 294.06 105.779C294.482 106.06 294.81 106.455 295.046 106.964H295.145C295.389 106.472 295.755 106.081 296.243 105.792C296.731 105.498 297.316 105.351 297.998 105.351C298.849 105.351 299.546 105.618 300.087 106.151C300.629 106.68 300.9 107.505 300.9 108.625V115H299.436V108.625C299.436 107.923 299.244 107.42 298.86 107.119C298.475 106.817 298.022 106.666 297.502 106.666C296.832 106.666 296.313 106.868 295.945 107.274C295.577 107.675 295.393 108.183 295.393 108.799V115H293.905V108.477C293.905 107.935 293.729 107.499 293.378 107.168C293.027 106.833 292.574 106.666 292.02 106.666C291.64 106.666 291.284 106.767 290.953 106.97C290.627 107.172 290.362 107.453 290.16 107.813C289.961 108.169 289.862 108.58 289.862 109.047V115H288.399ZM305.322 115V105.475H306.785V115H305.322ZM306.066 103.888C305.78 103.888 305.534 103.791 305.328 103.596C305.125 103.402 305.024 103.169 305.024 102.896C305.024 102.623 305.125 102.389 305.328 102.195C305.534 102.001 305.78 101.904 306.066 101.904C306.351 101.904 306.595 102.001 306.797 102.195C307.004 102.389 307.107 102.623 307.107 102.896C307.107 103.169 307.004 103.402 306.797 103.596C306.595 103.791 306.351 103.888 306.066 103.888ZM314.808 115.198C314.014 115.198 313.314 114.998 312.706 114.597C312.098 114.192 311.623 113.621 311.28 112.885C310.937 112.145 310.765 111.271 310.765 110.262C310.765 109.262 310.937 108.394 311.28 107.658C311.623 106.922 312.1 106.354 312.712 105.953C313.324 105.552 314.031 105.351 314.833 105.351C315.453 105.351 315.943 105.455 316.303 105.661C316.666 105.864 316.943 106.095 317.133 106.356C317.328 106.612 317.479 106.823 317.586 106.988H317.71V102.3H319.174V115H317.76V113.537H317.586C317.479 113.71 317.326 113.929 317.127 114.194C316.929 114.454 316.646 114.688 316.278 114.895C315.91 115.097 315.42 115.198 314.808 115.198ZM315.007 113.884C315.594 113.884 316.09 113.731 316.495 113.425C316.9 113.115 317.208 112.687 317.419 112.141C317.63 111.592 317.735 110.957 317.735 110.238C317.735 109.527 317.632 108.904 317.425 108.371C317.218 107.834 316.912 107.416 316.507 107.119C316.102 106.817 315.602 106.666 315.007 106.666C314.386 106.666 313.87 106.825 313.456 107.143C313.047 107.458 312.739 107.885 312.532 108.427C312.33 108.964 312.229 109.568 312.229 110.238C312.229 110.916 312.332 111.532 312.539 112.086C312.749 112.635 313.059 113.074 313.469 113.4C313.882 113.723 314.395 113.884 315.007 113.884ZM327.797 115.198C326.879 115.198 326.087 114.996 325.422 114.591C324.76 114.181 324.25 113.611 323.89 112.879C323.535 112.143 323.357 111.288 323.357 110.312C323.357 109.336 323.535 108.477 323.89 107.732C324.25 106.984 324.75 106.401 325.391 105.984C326.036 105.562 326.788 105.351 327.648 105.351C328.144 105.351 328.634 105.434 329.117 105.599C329.601 105.765 330.041 106.033 330.438 106.405C330.835 106.773 331.151 107.261 331.387 107.869C331.623 108.477 331.74 109.225 331.74 110.114V110.734H324.399V109.469H330.252C330.252 108.931 330.145 108.452 329.93 108.03C329.719 107.608 329.417 107.276 329.024 107.032C328.636 106.788 328.177 106.666 327.648 106.666C327.065 106.666 326.561 106.811 326.135 107.1C325.713 107.385 325.389 107.757 325.161 108.216C324.934 108.675 324.82 109.167 324.82 109.692V110.535C324.82 111.255 324.944 111.864 325.192 112.365C325.444 112.861 325.794 113.239 326.24 113.499C326.687 113.756 327.205 113.884 327.797 113.884C328.181 113.884 328.528 113.83 328.838 113.723C329.153 113.611 329.423 113.446 329.651 113.227C329.878 113.003 330.054 112.726 330.178 112.396L331.592 112.792C331.443 113.272 331.193 113.694 330.841 114.057C330.49 114.417 330.056 114.698 329.539 114.901C329.022 115.099 328.442 115.198 327.797 115.198ZM342.459 107.608L341.145 107.981C341.062 107.761 340.94 107.549 340.779 107.342C340.622 107.131 340.407 106.957 340.134 106.821C339.861 106.685 339.512 106.616 339.086 106.616C338.503 106.616 338.017 106.751 337.629 107.019C337.244 107.284 337.052 107.621 337.052 108.03C337.052 108.394 337.184 108.681 337.449 108.892C337.714 109.103 338.127 109.279 338.689 109.419L340.103 109.766C340.955 109.973 341.589 110.289 342.007 110.715C342.424 111.137 342.633 111.68 342.633 112.346C342.633 112.892 342.476 113.379 342.162 113.809C341.852 114.239 341.418 114.578 340.86 114.826C340.301 115.074 339.652 115.198 338.912 115.198C337.941 115.198 337.137 114.988 336.5 114.566C335.864 114.144 335.461 113.528 335.291 112.718L336.68 112.371C336.812 112.883 337.062 113.268 337.43 113.524C337.802 113.78 338.288 113.909 338.888 113.909C339.57 113.909 340.111 113.764 340.512 113.475C340.917 113.181 341.12 112.83 341.12 112.42C341.12 112.09 341.004 111.813 340.773 111.589C340.541 111.362 340.186 111.193 339.706 111.081L338.119 110.709C337.246 110.502 336.606 110.182 336.196 109.748C335.791 109.31 335.589 108.762 335.589 108.105C335.589 107.567 335.74 107.092 336.041 106.678C336.347 106.265 336.763 105.94 337.288 105.705C337.817 105.469 338.416 105.351 339.086 105.351C340.029 105.351 340.769 105.558 341.306 105.971C341.848 106.385 342.232 106.93 342.459 107.608ZM348.74 115L345.838 105.475H347.376L349.435 112.768H349.534L351.568 105.475H353.13L355.139 112.743H355.239L357.297 105.475H358.835L355.933 115H354.494L352.411 107.683H352.262L350.179 115H348.74ZM366.185 115.198C365.268 115.198 364.476 114.996 363.811 114.591C363.149 114.181 362.639 113.611 362.279 112.879C361.923 112.143 361.746 111.288 361.746 110.312C361.746 109.336 361.923 108.477 362.279 107.732C362.639 106.984 363.139 106.401 363.78 105.984C364.424 105.562 365.177 105.351 366.037 105.351C366.533 105.351 367.023 105.434 367.506 105.599C367.99 105.765 368.43 106.033 368.827 106.405C369.224 106.773 369.54 107.261 369.776 107.869C370.011 108.477 370.129 109.225 370.129 110.114V110.734H362.787V109.469H368.641C368.641 108.931 368.534 108.452 368.319 108.03C368.108 107.608 367.806 107.276 367.413 107.032C367.025 106.788 366.566 106.666 366.037 106.666C365.454 106.666 364.949 106.811 364.524 107.1C364.102 107.385 363.777 107.757 363.55 108.216C363.323 108.675 363.209 109.167 363.209 109.692V110.535C363.209 111.255 363.333 111.864 363.581 112.365C363.833 112.861 364.183 113.239 364.629 113.499C365.076 113.756 365.594 113.884 366.185 113.884C366.57 113.884 366.917 113.83 367.227 113.723C367.541 113.611 367.812 113.446 368.04 113.227C368.267 113.003 368.443 112.726 368.567 112.396L369.98 112.792C369.832 113.272 369.582 113.694 369.23 114.057C368.879 114.417 368.445 114.698 367.928 114.901C367.411 115.099 366.83 115.198 366.185 115.198ZM374.3 115V102.3H375.763V106.988H375.887C375.995 106.823 376.144 106.612 376.334 106.356C376.528 106.095 376.805 105.864 377.165 105.661C377.529 105.455 378.021 105.351 378.641 105.351C379.443 105.351 380.15 105.552 380.761 105.953C381.373 106.354 381.851 106.922 382.194 107.658C382.537 108.394 382.709 109.262 382.709 110.262C382.709 111.271 382.537 112.145 382.194 112.885C381.851 113.621 381.375 114.192 380.768 114.597C380.16 114.998 379.459 115.198 378.666 115.198C378.054 115.198 377.564 115.097 377.196 114.895C376.828 114.688 376.545 114.454 376.346 114.194C376.148 113.929 375.995 113.71 375.887 113.537H375.714V115H374.3ZM375.739 110.238C375.739 110.957 375.844 111.592 376.055 112.141C376.266 112.687 376.574 113.115 376.979 113.425C377.384 113.731 377.88 113.884 378.467 113.884C379.079 113.884 379.589 113.723 379.999 113.4C380.412 113.074 380.722 112.635 380.929 112.086C381.14 111.532 381.245 110.916 381.245 110.238C381.245 109.568 381.142 108.964 380.935 108.427C380.732 107.885 380.425 107.458 380.011 107.143C379.602 106.825 379.087 106.666 378.467 106.666C377.872 106.666 377.372 106.817 376.966 107.119C376.561 107.416 376.255 107.834 376.049 108.371C375.842 108.904 375.739 109.527 375.739 110.238Z" fill="#30CC17"/>
<path d="M387.214 109.642C387.214 108.08 387.417 106.643 387.822 105.333C388.231 104.018 388.814 102.809 389.57 101.705H390.86C390.563 102.114 390.284 102.619 390.023 103.218C389.767 103.813 389.542 104.469 389.347 105.184C389.153 105.895 389 106.631 388.888 107.391C388.781 108.152 388.727 108.902 388.727 109.642C388.727 110.626 388.822 111.625 389.012 112.637C389.203 113.65 389.459 114.591 389.781 115.459C390.104 116.327 390.463 117.034 390.86 117.58H389.57C388.814 116.476 388.231 115.269 387.822 113.958C387.417 112.644 387.214 111.205 387.214 109.642ZM397.891 109.642C397.891 111.205 397.687 112.644 397.277 113.958C396.872 115.269 396.291 116.476 395.535 117.58H394.245C394.543 117.17 394.82 116.666 395.076 116.067C395.336 115.471 395.564 114.818 395.758 114.107C395.952 113.392 396.103 112.654 396.211 111.893C396.322 111.129 396.378 110.378 396.378 109.642C396.378 108.658 396.283 107.66 396.093 106.647C395.903 105.634 395.646 104.694 395.324 103.826C395.002 102.958 394.642 102.251 394.245 101.705H395.535C396.291 102.809 396.872 104.018 397.277 105.333C397.687 106.643 397.891 108.08 397.891 109.642ZM408.801 109.667V108.898C409.492 108.898 409.973 108.754 410.246 108.464C410.523 108.175 410.662 107.691 410.662 107.013V105.029C410.662 104.458 410.716 103.964 410.823 103.547C410.935 103.129 411.114 102.784 411.362 102.511C411.611 102.238 411.941 102.036 412.355 101.904C412.768 101.771 413.279 101.705 413.886 101.705V102.921C413.407 102.921 413.028 102.995 412.751 103.144C412.479 103.293 412.284 103.524 412.169 103.838C412.057 104.148 412.001 104.545 412.001 105.029V107.509C412.001 107.832 411.958 108.125 411.871 108.39C411.788 108.654 411.633 108.882 411.406 109.072C411.179 109.262 410.854 109.409 410.432 109.512C410.015 109.616 409.471 109.667 408.801 109.667ZM413.886 117.58C413.279 117.58 412.768 117.513 412.355 117.381C411.941 117.249 411.611 117.046 411.362 116.773C411.114 116.501 410.935 116.155 410.823 115.738C410.716 115.32 410.662 114.826 410.662 114.256V112.272C410.662 111.594 410.523 111.11 410.246 110.821C409.973 110.531 409.492 110.386 408.801 110.386V109.618C409.471 109.618 410.015 109.669 410.432 109.773C410.854 109.876 411.179 110.023 411.406 110.213C411.633 110.403 411.788 110.63 411.871 110.895C411.958 111.16 412.001 111.453 412.001 111.776V114.256C412.001 114.74 412.057 115.136 412.169 115.446C412.284 115.757 412.479 115.986 412.751 116.135C413.028 116.288 413.407 116.364 413.886 116.364V117.58ZM408.801 110.386V108.898H410.265V110.386H408.801ZM32.6801 193.618V194.386C31.9897 194.386 31.506 194.531 31.229 194.821C30.9562 195.11 30.8198 195.594 30.8198 196.272V198.256C30.8198 198.826 30.764 199.32 30.6524 199.738C30.5449 200.155 30.3671 200.501 30.1191 200.773C29.871 201.046 29.5403 201.249 29.1269 201.381C28.7135 201.513 28.203 201.58 27.5953 201.58V200.364C28.0748 200.364 28.451 200.288 28.7239 200.135C29.0008 199.986 29.1951 199.757 29.3068 199.446C29.4225 199.136 29.4804 198.74 29.4804 198.256V195.776C29.4804 195.453 29.5217 195.16 29.6044 194.895C29.6912 194.63 29.8483 194.403 30.0757 194.213C30.303 194.023 30.6255 193.876 31.043 193.773C31.4647 193.669 32.0104 193.618 32.6801 193.618ZM27.5953 185.705C28.203 185.705 28.7135 185.771 29.1269 185.904C29.5403 186.036 29.871 186.238 30.1191 186.511C30.3671 186.784 30.5449 187.129 30.6524 187.547C30.764 187.964 30.8198 188.458 30.8198 189.029V191.013C30.8198 191.691 30.9562 192.175 31.229 192.464C31.506 192.754 31.9897 192.898 32.6801 192.898V193.667C32.0104 193.667 31.4647 193.616 31.043 193.512C30.6255 193.409 30.303 193.262 30.0757 193.072C29.8483 192.882 29.6912 192.654 29.6044 192.39C29.5217 192.125 29.4804 191.832 29.4804 191.509V189.029C29.4804 188.545 29.4225 188.148 29.3068 187.838C29.1951 187.524 29.0008 187.293 28.7239 187.144C28.451 186.995 28.0748 186.921 27.5953 186.921V185.705ZM32.6801 192.898V194.386H31.2166V192.898H32.6801Z" fill="#F5BC0E"/>
<path d="M41.6541 136V126.475H43.0679V127.914H43.1671C43.3407 127.443 43.6549 127.06 44.1097 126.767C44.5644 126.473 45.077 126.327 45.6475 126.327C45.755 126.327 45.8893 126.329 46.0506 126.333C46.2118 126.337 46.3337 126.343 46.4164 126.351V127.84C46.3668 127.827 46.2531 127.809 46.0754 127.784C45.9017 127.755 45.7178 127.74 45.5235 127.74C45.0605 127.74 44.6471 127.837 44.2833 128.032C43.9236 128.222 43.6384 128.487 43.4276 128.826C43.2209 129.16 43.1175 129.543 43.1175 129.973V136H41.6541ZM53.6008 136.198C52.6831 136.198 51.8914 135.996 51.2259 135.591C50.5644 135.181 50.0539 134.611 49.6942 133.879C49.3387 133.143 49.161 132.288 49.161 131.312C49.161 130.336 49.3387 129.477 49.6942 128.732C50.0539 127.984 50.5541 127.401 51.1949 126.984C51.8398 126.562 52.5922 126.351 53.452 126.351C53.9481 126.351 54.438 126.434 54.9216 126.599C55.4053 126.765 55.8456 127.033 56.2424 127.405C56.6393 127.773 56.9556 128.261 57.1912 128.869C57.4268 129.477 57.5446 130.225 57.5446 131.114V131.734H50.2027V130.469H56.0564C56.0564 129.931 55.9489 129.452 55.734 129.03C55.5231 128.608 55.2214 128.276 54.8286 128.032C54.44 127.788 53.9812 127.666 53.452 127.666C52.8691 127.666 52.3648 127.811 51.939 128.1C51.5173 128.385 51.1928 128.757 50.9654 129.216C50.7381 129.675 50.6244 130.167 50.6244 130.692V131.535C50.6244 132.255 50.7484 132.864 50.9964 133.365C51.2486 133.861 51.5979 134.239 52.0444 134.499C52.4909 134.756 53.0097 134.884 53.6008 134.884C53.9853 134.884 54.3326 134.83 54.6426 134.723C54.9568 134.611 55.2276 134.446 55.4549 134.227C55.6823 134.003 55.858 133.726 55.982 133.396L57.3958 133.792C57.247 134.272 56.9969 134.694 56.6455 135.057C56.2941 135.417 55.8601 135.698 55.3433 135.901C54.8266 136.099 54.2457 136.198 53.6008 136.198ZM65.6592 126.475V127.716H60.7233V126.475H65.6592ZM62.1619 124.193H63.6253V133.272C63.6253 133.685 63.6852 133.995 63.8051 134.202C63.9291 134.404 64.0862 134.541 64.2764 134.611C64.4707 134.677 64.6753 134.71 64.8903 134.71C65.0515 134.71 65.1838 134.702 65.2871 134.685C65.3905 134.665 65.4732 134.648 65.5352 134.636L65.8328 135.95C65.7336 135.988 65.5951 136.025 65.4174 136.062C65.2396 136.103 65.0143 136.124 64.7415 136.124C64.3281 136.124 63.9229 136.035 63.5261 135.857C63.1334 135.68 62.8068 135.409 62.5463 135.045C62.29 134.681 62.1619 134.222 62.1619 133.668V124.193ZM75.6093 132.106V126.475H77.0727V136H75.6093V134.388H75.51C75.2868 134.871 74.9395 135.283 74.4683 135.622C73.997 135.957 73.4017 136.124 72.6824 136.124C72.0871 136.124 71.558 135.994 71.095 135.733C70.632 135.469 70.2682 135.072 70.0036 134.543C69.739 134.009 69.6067 133.338 69.6067 132.527V126.475H71.0702V132.428C71.0702 133.123 71.2645 133.677 71.653 134.09C72.0458 134.504 72.546 134.71 73.1537 134.71C73.5175 134.71 73.8875 134.617 74.2636 134.431C74.644 134.245 74.9623 133.96 75.2186 133.575C75.479 133.191 75.6093 132.701 75.6093 132.106ZM81.4992 136V126.475H82.913V127.914H83.0123C83.1859 127.443 83.5001 127.06 83.9548 126.767C84.4095 126.473 84.9221 126.327 85.4926 126.327C85.6001 126.327 85.7345 126.329 85.8957 126.333C86.0569 126.337 86.1789 126.343 86.2616 126.351V127.84C86.2119 127.827 86.0983 127.809 85.9205 127.784C85.7469 127.755 85.5629 127.74 85.3686 127.74C84.9056 127.74 84.4922 127.837 84.1284 128.032C83.7688 128.222 83.4835 128.487 83.2727 128.826C83.066 129.16 82.9626 129.543 82.9626 129.973V136H81.4992ZM91.2059 130.27V136H89.7425V126.475H91.1563V127.964H91.2803C91.5035 127.48 91.8425 127.091 92.2972 126.798C92.752 126.5 93.339 126.351 94.0583 126.351C94.7032 126.351 95.2675 126.484 95.7512 126.748C96.2348 127.009 96.611 127.405 96.8797 127.939C97.1485 128.468 97.2828 129.138 97.2828 129.948V136H95.8194V130.047C95.8194 129.299 95.6251 128.716 95.2365 128.298C94.8479 127.877 94.3146 127.666 93.6367 127.666C93.1695 127.666 92.752 127.767 92.3841 127.97C92.0203 128.172 91.733 128.468 91.5221 128.857C91.3113 129.245 91.2059 129.716 91.2059 130.27Z" fill="#E49231"/>
<path d="M62.0478 152.535V151.543L70.0346 147.475V149.063L63.9081 152.014L63.9577 151.915V152.163L63.9081 152.064L70.0346 155.016V156.603L62.0478 152.535ZM76.3462 151.27V157H74.8828V144.3H76.3462V148.964H76.4703C76.6935 148.472 77.0283 148.081 77.4748 147.792C77.9254 147.498 78.5248 147.351 79.2731 147.351C79.9221 147.351 80.4905 147.482 80.9783 147.742C81.4662 147.998 81.8444 148.393 82.1131 148.926C82.386 149.456 82.5224 150.129 82.5224 150.948V157H81.059V151.047C81.059 150.291 80.8626 149.706 80.4699 149.292C80.0813 148.875 79.5418 148.666 78.8514 148.666C78.3719 148.666 77.9419 148.767 77.5616 148.97C77.1854 149.172 76.8878 149.468 76.6687 149.857C76.4537 150.245 76.3462 150.716 76.3462 151.27ZM90.6866 144.3V157H89.1487V145.913H89.0743L85.9738 147.971V146.409L89.1487 144.3H90.6866ZM104.518 151.345L96.5316 155.413V153.825L102.658 150.873L102.608 150.973V150.725L102.658 150.824L96.5316 147.872V146.285L104.518 150.353V151.345ZM113.484 157H109.565V144.3H113.658C114.89 144.3 115.944 144.555 116.82 145.063C117.697 145.568 118.368 146.293 118.835 147.24C119.303 148.182 119.536 149.311 119.536 150.625C119.536 151.948 119.301 153.087 118.829 154.042C118.358 154.993 117.672 155.725 116.771 156.237C115.869 156.746 114.774 157 113.484 157ZM111.103 155.636H113.385C114.435 155.636 115.305 155.433 115.995 155.028C116.686 154.623 117.2 154.046 117.539 153.298C117.878 152.55 118.048 151.659 118.048 150.625C118.048 149.6 117.881 148.718 117.546 147.978C117.211 147.234 116.711 146.663 116.045 146.266C115.379 145.865 114.551 145.665 113.558 145.665H111.103V155.636ZM127.533 157.198C126.673 157.198 125.919 156.994 125.27 156.585C124.625 156.175 124.12 155.603 123.757 154.867C123.397 154.131 123.217 153.271 123.217 152.287C123.217 151.295 123.397 150.429 123.757 149.689C124.12 148.949 124.625 148.374 125.27 147.965C125.919 147.556 126.673 147.351 127.533 147.351C128.393 147.351 129.145 147.556 129.79 147.965C130.439 148.374 130.943 148.949 131.303 149.689C131.667 150.429 131.849 151.295 131.849 152.287C131.849 153.271 131.667 154.131 131.303 154.867C130.943 155.603 130.439 156.175 129.79 156.585C129.145 156.994 128.393 157.198 127.533 157.198ZM127.533 155.884C128.186 155.884 128.723 155.716 129.145 155.382C129.567 155.047 129.879 154.606 130.082 154.061C130.284 153.515 130.385 152.924 130.385 152.287C130.385 151.651 130.284 151.057 130.082 150.508C129.879 149.958 129.567 149.513 129.145 149.174C128.723 148.835 128.186 148.666 127.533 148.666C126.88 148.666 126.342 148.835 125.921 149.174C125.499 149.513 125.187 149.958 124.984 150.508C124.782 151.057 124.68 151.651 124.68 152.287C124.68 152.924 124.782 153.515 124.984 154.061C125.187 154.606 125.499 155.047 125.921 155.382C126.342 155.716 126.88 155.884 127.533 155.884ZM146.083 157.198C145.289 157.198 144.588 156.998 143.981 156.597C143.373 156.192 142.898 155.621 142.554 154.885C142.211 154.145 142.04 153.271 142.04 152.262C142.04 151.262 142.211 150.394 142.554 149.658C142.898 148.922 143.375 148.354 143.987 147.953C144.599 147.552 145.306 147.351 146.108 147.351C146.728 147.351 147.218 147.455 147.577 147.661C147.941 147.864 148.218 148.095 148.408 148.356C148.602 148.612 148.753 148.823 148.861 148.988H148.985V144.3H150.448V157H149.034V155.537H148.861C148.753 155.71 148.6 155.929 148.402 156.194C148.203 156.454 147.92 156.688 147.552 156.895C147.184 157.097 146.695 157.198 146.083 157.198ZM146.281 155.884C146.868 155.884 147.364 155.731 147.769 155.425C148.175 155.115 148.483 154.687 148.693 154.141C148.904 153.592 149.01 152.957 149.01 152.238C149.01 151.527 148.906 150.904 148.7 150.371C148.493 149.834 148.187 149.416 147.782 149.119C147.377 148.817 146.876 148.666 146.281 148.666C145.661 148.666 145.144 148.825 144.731 149.143C144.322 149.458 144.014 149.885 143.807 150.427C143.604 150.964 143.503 151.568 143.503 152.238C143.503 152.916 143.606 153.532 143.813 154.086C144.024 154.635 144.334 155.074 144.743 155.4C145.157 155.723 145.669 155.884 146.281 155.884ZM159.071 157.198C158.154 157.198 157.362 156.996 156.696 156.591C156.035 156.181 155.524 155.611 155.165 154.879C154.809 154.143 154.631 153.288 154.631 152.312C154.631 151.336 154.809 150.477 155.165 149.732C155.524 148.984 156.025 148.401 156.665 147.984C157.31 147.562 158.063 147.351 158.922 147.351C159.419 147.351 159.908 147.434 160.392 147.599C160.876 147.765 161.316 148.033 161.713 148.405C162.11 148.773 162.426 149.261 162.662 149.869C162.897 150.477 163.015 151.225 163.015 152.114V152.734H155.673V151.469H161.527C161.527 150.931 161.419 150.452 161.204 150.03C160.994 149.608 160.692 149.276 160.299 149.032C159.91 148.788 159.452 148.666 158.922 148.666C158.34 148.666 157.835 148.811 157.409 149.1C156.988 149.385 156.663 149.757 156.436 150.216C156.208 150.675 156.095 151.167 156.095 151.692V152.535C156.095 153.255 156.219 153.864 156.467 154.365C156.719 154.861 157.068 155.239 157.515 155.499C157.961 155.756 158.48 155.884 159.071 155.884C159.456 155.884 159.803 155.83 160.113 155.723C160.427 155.611 160.698 155.446 160.925 155.227C161.153 155.003 161.328 154.726 161.452 154.396L162.866 154.792C162.717 155.272 162.467 155.694 162.116 156.057C161.765 156.417 161.33 156.698 160.814 156.901C160.297 157.099 159.716 157.198 159.071 157.198ZM173.734 149.608L172.419 149.981C172.337 149.761 172.215 149.549 172.054 149.342C171.896 149.131 171.682 148.957 171.409 148.821C171.136 148.685 170.787 148.616 170.361 148.616C169.778 148.616 169.292 148.751 168.903 149.019C168.519 149.284 168.327 149.621 168.327 150.03C168.327 150.394 168.459 150.681 168.724 150.892C168.988 151.103 169.402 151.279 169.964 151.419L171.378 151.766C172.229 151.973 172.864 152.289 173.281 152.715C173.699 153.137 173.908 153.68 173.908 154.346C173.908 154.892 173.751 155.379 173.436 155.809C173.126 156.239 172.692 156.578 172.134 156.826C171.576 157.074 170.927 157.198 170.187 157.198C169.216 157.198 168.412 156.988 167.775 156.566C167.138 156.144 166.735 155.528 166.566 154.718L167.955 154.371C168.087 154.883 168.337 155.268 168.705 155.524C169.077 155.78 169.563 155.909 170.162 155.909C170.844 155.909 171.386 155.764 171.787 155.475C172.192 155.181 172.395 154.83 172.395 154.42C172.395 154.09 172.279 153.813 172.047 153.589C171.816 153.362 171.46 153.193 170.981 153.081L169.393 152.709C168.521 152.502 167.88 152.182 167.471 151.748C167.066 151.31 166.863 150.762 166.863 150.105C166.863 149.567 167.014 149.092 167.316 148.678C167.622 148.265 168.037 147.94 168.562 147.705C169.092 147.469 169.691 147.351 170.361 147.351C171.303 147.351 172.043 147.558 172.581 147.971C173.122 148.385 173.507 148.93 173.734 149.608ZM177.857 157V147.475H179.32V157H177.857ZM178.601 145.888C178.316 145.888 178.07 145.791 177.863 145.596C177.66 145.402 177.559 145.169 177.559 144.896C177.559 144.623 177.66 144.389 177.863 144.195C178.07 144.001 178.316 143.904 178.601 143.904C178.886 143.904 179.13 144.001 179.333 144.195C179.539 144.389 179.643 144.623 179.643 144.896C179.643 145.169 179.539 145.402 179.333 145.596C179.13 145.791 178.886 145.888 178.601 145.888ZM187.591 160.77C186.884 160.77 186.277 160.679 185.768 160.497C185.26 160.32 184.836 160.084 184.497 159.79C184.162 159.501 183.896 159.191 183.697 158.86L184.863 158.042C184.995 158.215 185.163 158.414 185.365 158.637C185.568 158.864 185.845 159.061 186.196 159.226C186.552 159.396 187.017 159.48 187.591 159.48C188.36 159.48 188.995 159.294 189.495 158.922C189.995 158.55 190.245 157.967 190.245 157.174V155.239H190.121C190.014 155.413 189.861 155.628 189.662 155.884C189.468 156.136 189.187 156.361 188.819 156.56C188.455 156.754 187.963 156.851 187.343 156.851C186.574 156.851 185.884 156.669 185.272 156.305C184.664 155.942 184.183 155.413 183.827 154.718C183.476 154.024 183.3 153.18 183.3 152.188C183.3 151.212 183.472 150.363 183.815 149.639C184.158 148.912 184.635 148.35 185.247 147.953C185.859 147.552 186.566 147.351 187.368 147.351C187.988 147.351 188.48 147.455 188.844 147.661C189.212 147.864 189.493 148.095 189.687 148.356C189.886 148.612 190.039 148.823 190.146 148.988H190.295V147.475H191.709V157.273C191.709 158.091 191.523 158.757 191.151 159.27C190.783 159.786 190.287 160.165 189.662 160.404C189.042 160.648 188.352 160.77 187.591 160.77ZM187.542 155.537C188.129 155.537 188.625 155.402 189.03 155.134C189.435 154.865 189.743 154.478 189.954 153.974C190.165 153.47 190.27 152.866 190.27 152.163C190.27 151.477 190.167 150.871 189.96 150.346C189.753 149.821 189.447 149.41 189.042 149.112C188.637 148.815 188.137 148.666 187.542 148.666C186.922 148.666 186.405 148.823 185.991 149.137C185.582 149.451 185.274 149.873 185.067 150.402C184.865 150.931 184.764 151.518 184.764 152.163C184.764 152.825 184.867 153.41 185.074 153.918C185.285 154.422 185.595 154.819 186.004 155.109C186.417 155.394 186.93 155.537 187.542 155.537ZM197.597 151.27V157H196.134V147.475H197.548V148.964H197.672C197.895 148.48 198.234 148.091 198.689 147.798C199.143 147.5 199.73 147.351 200.45 147.351C201.094 147.351 201.659 147.484 202.142 147.748C202.626 148.009 203.002 148.405 203.271 148.939C203.54 149.468 203.674 150.138 203.674 150.948V157H202.211V151.047C202.211 150.299 202.016 149.716 201.628 149.298C201.239 148.877 200.706 148.666 200.028 148.666C199.561 148.666 199.143 148.767 198.775 148.97C198.412 149.172 198.124 149.468 197.913 149.857C197.703 150.245 197.597 150.716 197.597 151.27ZM212.088 157.198C211.17 157.198 210.378 156.996 209.713 156.591C209.051 156.181 208.541 155.611 208.181 154.879C207.826 154.143 207.648 153.288 207.648 152.312C207.648 151.336 207.826 150.477 208.181 149.732C208.541 148.984 209.041 148.401 209.682 147.984C210.327 147.562 211.079 147.351 211.939 147.351C212.435 147.351 212.925 147.434 213.409 147.599C213.892 147.765 214.333 148.033 214.729 148.405C215.126 148.773 215.443 149.261 215.678 149.869C215.914 150.477 216.032 151.225 216.032 152.114V152.734H208.69V151.469H214.543C214.543 150.931 214.436 150.452 214.221 150.03C214.01 149.608 213.708 149.276 213.316 149.032C212.927 148.788 212.468 148.666 211.939 148.666C211.356 148.666 210.852 148.811 210.426 149.1C210.004 149.385 209.68 149.757 209.452 150.216C209.225 150.675 209.111 151.167 209.111 151.692V152.535C209.111 153.255 209.235 153.864 209.483 154.365C209.736 154.861 210.085 155.239 210.531 155.499C210.978 155.756 211.497 155.884 212.088 155.884C212.472 155.884 212.82 155.83 213.13 155.723C213.444 155.611 213.715 155.446 213.942 155.227C214.169 155.003 214.345 154.726 214.469 154.396L215.883 154.792C215.734 155.272 215.484 155.694 215.132 156.057C214.781 156.417 214.347 156.698 213.83 156.901C213.314 157.099 212.733 157.198 212.088 157.198ZM220.004 157V147.475H221.418V148.914H221.517C221.691 148.443 222.005 148.06 222.46 147.767C222.914 147.473 223.427 147.327 223.997 147.327C224.105 147.327 224.239 147.329 224.4 147.333C224.562 147.337 224.684 147.343 224.766 147.351V148.84C224.717 148.827 224.603 148.809 224.425 148.784C224.252 148.755 224.068 148.74 223.873 148.74C223.41 148.74 222.997 148.837 222.633 149.032C222.274 149.222 221.988 149.487 221.777 149.826C221.571 150.16 221.467 150.543 221.467 150.973V157H220.004ZM237.707 157.223C237.104 157.223 236.556 157.11 236.064 156.882C235.572 156.651 235.182 156.318 234.892 155.884C234.603 155.446 234.458 154.916 234.458 154.296C234.458 153.751 234.566 153.308 234.781 152.969C234.995 152.626 235.283 152.358 235.642 152.163C236.002 151.969 236.399 151.824 236.833 151.729C237.271 151.63 237.711 151.551 238.154 151.494C238.733 151.419 239.202 151.363 239.561 151.326C239.925 151.285 240.19 151.217 240.355 151.121C240.525 151.026 240.609 150.861 240.609 150.625V150.576C240.609 149.964 240.442 149.489 240.107 149.15C239.776 148.811 239.274 148.641 238.6 148.641C237.902 148.641 237.354 148.794 236.957 149.1C236.56 149.406 236.281 149.732 236.12 150.08L234.731 149.584C234.979 149.005 235.31 148.554 235.723 148.232C236.141 147.905 236.595 147.678 237.087 147.55C237.583 147.417 238.071 147.351 238.551 147.351C238.857 147.351 239.208 147.389 239.605 147.463C240.006 147.533 240.392 147.68 240.764 147.903C241.141 148.126 241.453 148.463 241.701 148.914C241.949 149.365 242.073 149.968 242.073 150.725V157H240.609V155.71H240.535C240.436 155.917 240.27 156.138 240.039 156.374C239.807 156.609 239.499 156.81 239.115 156.975C238.731 157.141 238.261 157.223 237.707 157.223ZM237.931 155.909C238.509 155.909 238.997 155.795 239.394 155.568C239.795 155.34 240.097 155.047 240.299 154.687C240.506 154.327 240.609 153.949 240.609 153.552V152.213C240.547 152.287 240.411 152.355 240.2 152.417C239.993 152.475 239.754 152.527 239.481 152.573C239.212 152.614 238.95 152.651 238.693 152.684C238.441 152.713 238.237 152.738 238.079 152.759C237.699 152.808 237.344 152.889 237.013 153C236.686 153.108 236.422 153.271 236.219 153.49C236.021 153.705 235.921 153.999 235.921 154.371C235.921 154.879 236.11 155.264 236.486 155.524C236.866 155.78 237.348 155.909 237.931 155.909ZM250.359 157.198C249.5 157.198 248.745 156.994 248.096 156.585C247.451 156.175 246.947 155.603 246.583 154.867C246.223 154.131 246.044 153.271 246.044 152.287C246.044 151.295 246.223 150.429 246.583 149.689C246.947 148.949 247.451 148.374 248.096 147.965C248.745 147.556 249.5 147.351 250.359 147.351C251.219 147.351 251.972 147.556 252.617 147.965C253.266 148.374 253.77 148.949 254.13 149.689C254.493 150.429 254.675 151.295 254.675 152.287C254.675 153.271 254.493 154.131 254.13 154.867C253.77 155.603 253.266 156.175 252.617 156.585C251.972 156.994 251.219 157.198 250.359 157.198ZM250.359 155.884C251.013 155.884 251.55 155.716 251.972 155.382C252.393 155.047 252.705 154.606 252.908 154.061C253.111 153.515 253.212 152.924 253.212 152.287C253.212 151.651 253.111 151.057 252.908 150.508C252.705 149.958 252.393 149.513 251.972 149.174C251.55 148.835 251.013 148.666 250.359 148.666C249.706 148.666 249.169 148.835 248.747 149.174C248.326 149.513 248.013 149.958 247.811 150.508C247.608 151.057 247.507 151.651 247.507 152.287C247.507 152.924 247.608 153.515 247.811 154.061C248.013 154.606 248.326 155.047 248.747 155.382C249.169 155.716 249.706 155.884 250.359 155.884ZM269.182 157.198C268.289 157.198 267.52 156.988 266.875 156.566C266.23 156.144 265.734 155.563 265.387 154.823C265.04 154.083 264.866 153.238 264.866 152.287C264.866 151.32 265.044 150.466 265.4 149.726C265.759 148.982 266.259 148.401 266.9 147.984C267.545 147.562 268.297 147.351 269.157 147.351C269.827 147.351 270.431 147.475 270.968 147.723C271.505 147.971 271.946 148.319 272.289 148.765C272.632 149.212 272.845 149.732 272.928 150.328H271.464C271.352 149.894 271.104 149.509 270.72 149.174C270.34 148.835 269.827 148.666 269.182 148.666C268.612 148.666 268.111 148.815 267.682 149.112C267.256 149.406 266.923 149.821 266.683 150.359C266.448 150.892 266.33 151.518 266.33 152.238C266.33 152.974 266.445 153.614 266.677 154.16C266.913 154.706 267.243 155.129 267.669 155.431C268.099 155.733 268.603 155.884 269.182 155.884C269.562 155.884 269.908 155.818 270.218 155.685C270.528 155.553 270.79 155.363 271.005 155.115C271.22 154.867 271.373 154.569 271.464 154.222H272.928C272.845 154.784 272.64 155.291 272.314 155.741C271.991 156.188 271.563 156.543 271.03 156.808C270.501 157.068 269.885 157.198 269.182 157.198ZM280.682 157.198C279.823 157.198 279.068 156.994 278.419 156.585C277.774 156.175 277.27 155.603 276.906 154.867C276.546 154.131 276.367 153.271 276.367 152.287C276.367 151.295 276.546 150.429 276.906 149.689C277.27 148.949 277.774 148.374 278.419 147.965C279.068 147.556 279.823 147.351 280.682 147.351C281.542 147.351 282.295 147.556 282.94 147.965C283.589 148.374 284.093 148.949 284.453 149.689C284.816 150.429 284.998 151.295 284.998 152.287C284.998 153.271 284.816 154.131 284.453 154.867C284.093 155.603 283.589 156.175 282.94 156.585C282.295 156.994 281.542 157.198 280.682 157.198ZM280.682 155.884C281.336 155.884 281.873 155.716 282.295 155.382C282.716 155.047 283.028 154.606 283.231 154.061C283.434 153.515 283.535 152.924 283.535 152.287C283.535 151.651 283.434 151.057 283.231 150.508C283.028 149.958 282.716 149.513 282.295 149.174C281.873 148.835 281.336 148.666 280.682 148.666C280.029 148.666 279.492 148.835 279.07 149.174C278.649 149.513 278.336 149.958 278.134 150.508C277.931 151.057 277.83 151.651 277.83 152.287C277.83 152.924 277.931 153.515 278.134 154.061C278.336 154.606 278.649 155.047 279.07 155.382C279.492 155.716 280.029 155.884 280.682 155.884ZM292.575 157.198C291.781 157.198 291.081 156.998 290.473 156.597C289.865 156.192 289.39 155.621 289.047 154.885C288.703 154.145 288.532 153.271 288.532 152.262C288.532 151.262 288.703 150.394 289.047 149.658C289.39 148.922 289.867 148.354 290.479 147.953C291.091 147.552 291.798 147.351 292.6 147.351C293.22 147.351 293.71 147.455 294.069 147.661C294.433 147.864 294.71 148.095 294.9 148.356C295.095 148.612 295.245 148.823 295.353 148.988H295.477V144.3H296.94V157H295.527V155.537H295.353C295.245 155.71 295.093 155.929 294.894 156.194C294.696 156.454 294.412 156.688 294.045 156.895C293.677 157.097 293.187 157.198 292.575 157.198ZM292.773 155.884C293.36 155.884 293.856 155.731 294.262 155.425C294.667 155.115 294.975 154.687 295.186 154.141C295.396 153.592 295.502 152.957 295.502 152.238C295.502 151.527 295.398 150.904 295.192 150.371C294.985 149.834 294.679 149.416 294.274 149.119C293.869 148.817 293.369 148.666 292.773 148.666C292.153 148.666 291.637 148.825 291.223 149.143C290.814 149.458 290.506 149.885 290.299 150.427C290.097 150.964 289.995 151.568 289.995 152.238C289.995 152.916 290.099 153.532 290.305 154.086C290.516 154.635 290.826 155.074 291.236 155.4C291.649 155.723 292.162 155.884 292.773 155.884ZM301.57 157V147.475H303.033V157H301.57ZM302.314 145.888C302.029 145.888 301.783 145.791 301.576 145.596C301.374 145.402 301.272 145.169 301.272 144.896C301.272 144.623 301.374 144.389 301.576 144.195C301.783 144.001 302.029 143.904 302.314 143.904C302.599 143.904 302.843 144.001 303.046 144.195C303.253 144.389 303.356 144.623 303.356 144.896C303.356 145.169 303.253 145.402 303.046 145.596C302.843 145.791 302.599 145.888 302.314 145.888ZM311.305 160.77C310.598 160.77 309.99 160.679 309.481 160.497C308.973 160.32 308.549 160.084 308.21 159.79C307.875 159.501 307.609 159.191 307.41 158.86L308.576 158.042C308.708 158.215 308.876 158.414 309.078 158.637C309.281 158.864 309.558 159.061 309.909 159.226C310.265 159.396 310.73 159.48 311.305 159.48C312.073 159.48 312.708 159.294 313.208 158.922C313.708 158.55 313.959 157.967 313.959 157.174V155.239H313.835C313.727 155.413 313.574 155.628 313.376 155.884C313.181 156.136 312.9 156.361 312.532 156.56C312.169 156.754 311.677 156.851 311.057 156.851C310.288 156.851 309.597 156.669 308.985 156.305C308.378 155.942 307.896 155.413 307.541 154.718C307.189 154.024 307.014 153.18 307.014 152.188C307.014 151.212 307.185 150.363 307.528 149.639C307.871 148.912 308.349 148.35 308.961 147.953C309.572 147.552 310.279 147.351 311.081 147.351C311.701 147.351 312.193 147.455 312.557 147.661C312.925 147.864 313.206 148.095 313.4 148.356C313.599 148.612 313.752 148.823 313.859 148.988H314.008V147.475H315.422V157.273C315.422 158.091 315.236 158.757 314.864 159.27C314.496 159.786 314 160.165 313.376 160.404C312.756 160.648 312.065 160.77 311.305 160.77ZM311.255 155.537C311.842 155.537 312.338 155.402 312.743 155.134C313.148 154.865 313.456 154.478 313.667 153.974C313.878 153.47 313.983 152.866 313.983 152.163C313.983 151.477 313.88 150.871 313.673 150.346C313.467 149.821 313.161 149.41 312.756 149.112C312.35 148.815 311.85 148.666 311.255 148.666C310.635 148.666 310.118 148.823 309.705 149.137C309.295 149.451 308.987 149.873 308.781 150.402C308.578 150.931 308.477 151.518 308.477 152.163C308.477 152.825 308.58 153.41 308.787 153.918C308.998 154.422 309.308 154.819 309.717 155.109C310.131 155.394 310.643 155.537 311.255 155.537ZM323.716 157.198C322.857 157.198 322.102 156.994 321.453 156.585C320.808 156.175 320.304 155.603 319.94 154.867C319.58 154.131 319.401 153.271 319.401 152.287C319.401 151.295 319.58 150.429 319.94 149.689C320.304 148.949 320.808 148.374 321.453 147.965C322.102 147.556 322.857 147.351 323.716 147.351C324.576 147.351 325.329 147.556 325.974 147.965C326.623 148.374 327.127 148.949 327.487 149.689C327.85 150.429 328.032 151.295 328.032 152.287C328.032 153.271 327.85 154.131 327.487 154.867C327.127 155.603 326.623 156.175 325.974 156.585C325.329 156.994 324.576 157.198 323.716 157.198ZM323.716 155.884C324.37 155.884 324.907 155.716 325.329 155.382C325.75 155.047 326.062 154.606 326.265 154.061C326.468 153.515 326.569 152.924 326.569 152.287C326.569 151.651 326.468 151.057 326.265 150.508C326.062 149.958 325.75 149.513 325.329 149.174C324.907 148.835 324.37 148.666 323.716 148.666C323.063 148.666 322.526 148.835 322.104 149.174C321.682 149.513 321.37 149.958 321.168 150.508C320.965 151.057 320.864 151.651 320.864 152.287C320.864 152.924 320.965 153.515 321.168 154.061C321.37 154.606 321.682 155.047 322.104 155.382C322.526 155.716 323.063 155.884 323.716 155.884ZM332.434 152.535V151.543L340.421 147.475V149.063L334.294 152.014L334.344 151.915V152.163L334.294 152.064L340.421 155.016V156.603L332.434 152.535ZM349.759 143.705L345.666 158.91H344.326L348.419 143.705H349.759ZM354.703 151.27V157H353.239V144.3H354.703V148.964H354.827C355.05 148.472 355.385 148.081 355.831 147.792C356.282 147.498 356.881 147.351 357.63 147.351C358.279 147.351 358.847 147.482 359.335 147.742C359.823 147.998 360.201 148.393 360.47 148.926C360.743 149.456 360.879 150.129 360.879 150.948V157H359.416V151.047C359.416 150.291 359.219 149.706 358.826 149.292C358.438 148.875 357.898 148.666 357.208 148.666C356.728 148.666 356.299 148.767 355.918 148.97C355.542 149.172 355.244 149.468 355.025 149.857C354.81 150.245 354.703 150.716 354.703 151.27ZM369.043 144.3V157H367.505V145.913H367.431L364.33 147.971V146.409L367.505 144.3H369.043ZM382.875 151.345L374.888 155.413V153.825L381.015 150.873L380.965 150.973V150.725L381.015 150.824L374.888 147.872V146.285L382.875 150.353V151.345Z" fill="#CA5454"/>
</svg>
