<svg width="768" height="592" viewBox="0 0 768 592" fill="none" xmlns="http://www.w3.org/2000/svg">
<path opacity="0.23" d="M42.2402 46.0801H729.6V490.24C729.6 504.379 718.139 515.84 704 515.84H67.8402C53.7018 515.84 42.2402 504.379 42.2402 490.24V46.0801Z" fill="#0E1C43"/>
<rect x="79.3594" y="97.2803" width="277.76" height="192" rx="8.96" fill="#0E1C43"/>
<rect opacity="0.8" x="238.08" y="350.72" width="126.72" height="124.16" rx="19.2" fill="#0E1C43"/>
<rect opacity="0.97" y="277.76" width="254.72" height="313.6" rx="15.36" fill="#46464B"/>
<rect opacity="0.6" x="28.1602" y="410.88" width="197.12" height="104.96" rx="6.4" fill="#2E53C1"/>
<path d="M202.24 193.28L181.76 222.08H259.84L227.84 184.96L211.2 206.08L202.24 193.28Z" fill="#EFF1F4" stroke="#EFF1F4" stroke-width="1.28" stroke-linejoin="round"/>
<path d="M116.48 459.52L96 488.32H174.08L142.08 451.2L125.44 472.32L116.48 459.52Z" fill="#EFF1F4" stroke="#EFF1F4" stroke-width="1.28" stroke-linejoin="round"/>
<circle cx="209.92" cy="176.64" r="7.68" fill="#DCE1EF"/>
<circle cx="124.16" cy="442.88" r="7.04" fill="#EFF1F4" stroke="#EFF1F4" stroke-width="1.28"/>
<rect opacity="0.8" x="408.32" y="113.92" width="203.52" height="11.52" rx="5.76" fill="#2E53C1"/>
<rect x="408.32" y="140.8" width="213.76" height="8.96" rx="4.48" fill="#EFF1F4"/>
<rect x="408.32" y="167.68" width="154.88" height="8.96" rx="4.48" fill="#EFF1F4"/>
<rect x="408.32" y="194.56" width="112.64" height="8.96" rx="4.48" fill="#EFF1F4"/>
<rect x="408.32" y="221.44" width="112.64" height="8.96" rx="4.48" fill="#EFF1F4"/>
<rect opacity="0.8" x="408.32" y="243.2" width="163.84" height="34.56" rx="5.12" fill="#2E53C1"/>
<rect opacity="0.8" x="404.48" y="350.72" width="126.72" height="124.16" rx="19.2" fill="#0E1C43"/>
<rect opacity="0.8" x="572.16" y="350.72" width="126.72" height="124.16" rx="19.2" fill="#0E1C43"/>
<path d="M460.801 424.32V398.08L481.921 411.52L460.801 424.32Z" fill="#EFF1F4" stroke="#EFF1F4" stroke-width="1.28" stroke-linejoin="round"/>
<path d="M628.48 424.32V398.08L649.6 411.52L628.48 424.32Z" fill="#EFF1F4" stroke="#EFF1F4" stroke-width="1.28" stroke-linejoin="round"/>
<path d="M294.4 424.32V398.08L315.52 411.52L294.4 424.32Z" fill="#EFF1F4" stroke="#EFF1F4" stroke-width="1.28" stroke-linejoin="round"/>
<rect x="28.1602" y="305.92" width="136.96" height="16.64" rx="7.68" fill="#2E53C1"/>
<rect x="28.1602" y="336.64" width="179.2" height="7.68" rx="3.84" fill="#EFF1F4"/>
<rect x="28.1602" y="353.28" width="189.44" height="7.68" rx="3.84" fill="#EFF1F4"/>
<rect x="28.1602" y="369.92" width="189.44" height="7.68" rx="3.84" fill="#EFF1F4"/>
<rect x="28.1602" y="386.56" width="194.56" height="7.68" rx="3.84" fill="#EFF1F4"/>
<rect opacity="0.7" x="28.1602" y="536.32" width="110.08" height="28.16" rx="5.12" fill="#2E53C1"/>
<path d="M42.2402 25.6C42.2402 11.4615 53.7017 0 67.8402 0H704C718.139 0 729.6 11.4615 729.6 25.6V46.08H42.2402V25.6Z" fill="#2E53C1"/>
<rect opacity="0.9" x="678.4" y="140.8" width="89.6" height="90.88" rx="12.8" fill="#0E1C43"/>
<path d="M713.013 182.247C712.823 181.789 713.159 181.287 713.654 181.287H716.835C717.123 181.287 717.381 181.464 717.484 181.733L723.714 198.031C723.78 198.205 723.774 198.4 723.696 198.569L722.713 200.703C722.6 200.949 722.354 201.107 722.083 201.107H721.288C721.007 201.107 720.754 200.938 720.646 200.678L713.013 182.247Z" fill="#EFF1F4"/>
<path d="M722.309 178.394C722.519 178.402 722.713 178.506 722.838 178.674L724.678 181.159C725.018 181.618 724.69 182.267 724.12 182.267L707.634 182.251C707.439 182.251 707.254 182.169 707.122 182.026L704.959 179.665C704.766 179.455 704.722 179.149 704.845 178.893L705.236 178.086C705.357 177.837 705.614 177.684 705.89 177.695L722.309 178.394Z" fill="#EFF1F4"/>
<path d="M725.121 200.629C725.011 200.882 724.761 201.046 724.484 201.046L721.442 201.042C720.941 201.042 720.606 200.528 720.807 200.069L728.982 181.456C729.093 181.204 729.343 181.041 729.618 181.041L732.614 181.044C733.114 181.045 733.449 181.558 733.249 182.016L725.121 200.629Z" fill="#EFF1F4"/>
<path d="M738.436 200.755C738.33 201.019 738.075 201.191 737.791 201.191L734.585 201.188C734.092 201.187 733.756 200.686 733.944 200.229L738.808 188.421C739.035 187.87 739.806 187.842 740.072 188.376L741.779 191.802C741.867 191.979 741.875 192.186 741.802 192.37L738.436 200.755Z" fill="#EFF1F4"/>
<path d="M737.157 200.32C737.3 200.768 736.966 201.227 736.495 201.226L723.695 201.213C723.152 201.212 722.82 200.616 723.105 200.154L724.583 197.759C724.71 197.554 724.934 197.429 725.175 197.429L735.729 197.44C736.031 197.441 736.298 197.636 736.39 197.923L737.157 200.32Z" fill="#EFF1F4"/>
<path d="M737.317 200.819C737.381 201.02 737.234 201.227 737.027 201.227L723.003 201.212C722.764 201.212 722.619 200.942 722.747 200.735L724.697 197.574C724.753 197.484 724.85 197.429 724.955 197.429L736.015 197.441C736.147 197.441 736.263 197.527 736.304 197.655L737.317 200.819Z" fill="#EFF1F4"/>
<path d="M738.502 184.457C738.393 184.713 738.141 184.88 737.863 184.879L730.491 184.872C729.961 184.871 729.627 184.299 729.887 183.837L731.187 181.529C731.31 181.31 731.541 181.175 731.792 181.175L738.847 181.182C739.345 181.183 739.68 181.691 739.485 182.149L738.502 184.457Z" fill="#EFF1F4"/>
<circle cx="78.0797" cy="24.3204" r="6.4" fill="#DA1A5B"/>
<circle cx="98.5602" cy="24.3204" r="6.4" fill="#39B54A"/>
<circle cx="119.041" cy="24.3204" r="6.4" fill="#FBAD3E"/>
</svg>
