<svg width="432" height="341" viewBox="0 0 432 341" fill="none" xmlns="http://www.w3.org/2000/svg">
<path opacity="0.3" d="M321 186L305 33L406 117.5L321 186ZM321 186L411 255M321 186L274.5 317.5M321 186L178.5 117.5M321 186L171.5 247L45 137L26 210.5L321 186ZM321 186L82.5 317.5" stroke="#2E53C1" stroke-width="2"/>
<rect x="298" y="161" width="50" height="50" rx="6.3" fill="#2E53C1"/>
<rect x="382" y="91" width="50" height="50" rx="6.3" fill="#0E1C43"/>
<rect x="382" y="227" width="50" height="50" rx="6.3" fill="#0E1C43"/>
<rect x="248" y="291" width="50" height="50" rx="6.3" fill="#0E1C43"/>
<rect x="53" y="291" width="50" height="50" rx="6.3" fill="#0E1C43"/>
<rect y="186" width="50" height="50" rx="6.3" fill="#0E1C43"/>
<rect x="144" y="221" width="50" height="50" rx="6.3" fill="#0E1C43"/>
<rect x="152" y="91" width="50" height="50" rx="6.3" fill="#0E1C43"/>
<rect x="281" width="50" height="50" rx="6.3" fill="#0E1C43"/>
<rect x="17" y="111" width="50" height="50" rx="6.3" fill="#0E1C43"/>
<path d="M315.041 182.38C314.893 182.023 315.156 181.63 315.542 181.63H318.027C318.252 181.63 318.454 181.769 318.534 181.979L323.401 194.711C323.453 194.848 323.448 194.999 323.387 195.132L322.62 196.799C322.531 196.991 322.339 197.114 322.127 197.114H321.506C321.286 197.114 321.089 196.982 321.005 196.779L315.041 182.38Z" fill="#EFF1F4"/>
<path d="M322.304 179.369C322.468 179.376 322.62 179.457 322.717 179.588L324.155 181.53C324.42 181.888 324.164 182.396 323.718 182.395L310.839 182.383C310.687 182.383 310.542 182.319 310.439 182.207L308.749 180.362C308.599 180.199 308.564 179.96 308.661 179.76L308.966 179.129C309.06 178.935 309.261 178.815 309.477 178.824L322.304 179.369Z" fill="#EFF1F4"/>
<path d="M324.501 196.741C324.415 196.939 324.219 197.067 324.003 197.067L321.627 197.064C321.236 197.064 320.973 196.662 321.131 196.304L327.517 181.763C327.604 181.565 327.799 181.438 328.015 181.438L330.354 181.441C330.745 181.441 331.007 181.842 330.851 182.2L324.501 196.741Z" fill="#EFF1F4"/>
<path d="M334.903 196.84C334.82 197.046 334.62 197.18 334.399 197.18L331.894 197.178C331.508 197.177 331.246 196.785 331.393 196.429L335.193 187.204C335.371 186.773 335.973 186.752 336.18 187.169L337.514 189.845C337.583 189.983 337.59 190.145 337.532 190.289L334.903 196.84Z" fill="#EFF1F4"/>
<path d="M333.904 196.5C334.016 196.851 333.755 197.209 333.387 197.208L323.387 197.198C322.963 197.197 322.703 196.732 322.926 196.371L324.081 194.5C324.18 194.339 324.355 194.242 324.543 194.242L332.789 194.251C333.024 194.251 333.233 194.403 333.305 194.628L333.904 196.5Z" fill="#EFF1F4"/>
<path d="M334.029 196.89C334.079 197.047 333.964 197.209 333.803 197.209L322.847 197.197C322.66 197.197 322.546 196.986 322.646 196.824L324.17 194.355C324.213 194.284 324.289 194.242 324.371 194.242L333.012 194.251C333.115 194.251 333.206 194.318 333.238 194.418L334.029 196.89Z" fill="#EFF1F4"/>
<path d="M334.955 184.107C334.87 184.307 334.673 184.437 334.455 184.437L328.696 184.431C328.282 184.43 328.021 183.984 328.224 183.622L329.239 181.819C329.336 181.648 329.517 181.543 329.713 181.543L335.224 181.549C335.613 181.549 335.875 181.946 335.723 182.304L334.955 184.107Z" fill="#EFF1F4"/>
<path fill-rule="evenodd" clip-rule="evenodd" d="M305.5 38C312.404 38 318 32.4036 318 25.5C318 18.5964 312.404 13 305.5 13C298.596 13 293 18.5964 293 25.5C293 32.4036 298.596 38 305.5 38Z" stroke="#EFF1F4" stroke-width="2" stroke-linecap="round" stroke-linejoin="round"/>
<path d="M293 25.5H318" stroke="#EFF1F4" stroke-width="2" stroke-linecap="round" stroke-linejoin="round"/>
<path fill-rule="evenodd" clip-rule="evenodd" d="M305.5 38C308.261 38 310.5 32.4036 310.5 25.5C310.5 18.5964 308.261 13 305.5 13C302.739 13 300.5 18.5964 300.5 25.5C300.5 32.4036 302.739 38 305.5 38Z" stroke="#EFF1F4" stroke-width="2" stroke-linecap="round" stroke-linejoin="round"/>
<path d="M296.662 16.8398C298.924 19.1019 302.049 20.501 305.501 20.501C308.953 20.501 312.078 19.1019 314.34 16.8398" stroke="#EFF1F4" stroke-width="2" stroke-linecap="round" stroke-linejoin="round"/>
<path d="M314.34 34.1612C312.078 31.8991 308.953 30.5 305.501 30.5C302.049 30.5 298.924 31.8991 296.662 34.1612" stroke="#EFF1F4" stroke-width="2" stroke-linecap="round" stroke-linejoin="round"/>
<path d="M396 260.25H419V251.625V243H407.5H396V251.625V260.25Z" stroke="#EFF1F4" stroke-width="2" stroke-linejoin="round"/>
<path d="M396 243L407.5 251.625L419 243" stroke="#EFF1F4" stroke-width="2" stroke-linecap="round" stroke-linejoin="round"/>
<path d="M410.375 243H396V253.781" stroke="#EFF1F4" stroke-width="2" stroke-linecap="round" stroke-linejoin="round"/>
<path d="M419 253.781V243H404.625" stroke="#EFF1F4" stroke-width="2" stroke-linecap="round" stroke-linejoin="round"/>
<path d="M265.889 322.111H261V327H265.889V322.111Z" stroke="#EFF1F4" stroke-width="2" stroke-linecap="round" stroke-linejoin="round"/>
<path d="M282.999 305H263.443V312.333H282.999V305Z" stroke="#EFF1F4" stroke-width="2" stroke-linecap="round" stroke-linejoin="round"/>
<path d="M273.225 322.111V312.333" stroke="#EFF1F4" stroke-width="2" stroke-linecap="round" stroke-linejoin="round"/>
<path d="M263.443 322.111V317.222H282.999V322.111" stroke="#EFF1F4" stroke-width="2" stroke-linecap="round" stroke-linejoin="round"/>
<path d="M285.446 322.111H280.557V327H285.446V322.111Z" stroke="#EFF1F4" stroke-width="2" stroke-linecap="round" stroke-linejoin="round"/>
<path d="M275.664 322.111H270.775V327H275.664V322.111Z" stroke="#EFF1F4" stroke-width="2" stroke-linecap="round" stroke-linejoin="round"/>
<path d="M267.111 308.667H268.334" stroke="#EFF1F4" stroke-width="2" stroke-linecap="round" stroke-linejoin="round"/>
<path d="M178.25 256.5L160.125 256.5V259L178.25 259V256.5ZM159.5 255.875V237.125H157V255.875H159.5ZM160.125 256.5C159.78 256.5 159.5 256.22 159.5 255.875H157C157 257.601 158.399 259 160.125 259V256.5ZM159.5 237.125C159.5 236.78 159.78 236.5 160.125 236.5V234C158.399 234 157 235.399 157 237.125H159.5Z" fill="#EFF1F4"/>
<path d="M160.125 236.5L178.25 236.5L178.25 234L168.875 234L160.125 234L160.125 236.5ZM178.875 237.125L178.875 255.875L181.375 255.875L181.375 237.125L178.875 237.125ZM178.25 236.5C178.595 236.5 178.875 236.78 178.875 237.125L181.375 237.125C181.375 235.399 179.976 234 178.25 234L178.25 236.5ZM178.875 255.875C178.875 256.22 178.595 256.5 178.25 256.5L178.25 259C179.976 259 181.375 257.601 181.375 255.875L178.875 255.875Z" fill="#EFF1F4"/>
<path d="M158.25 253.379L164.933 247.252C165.399 246.825 166.111 246.813 166.591 247.225L174.5 254.004" stroke="#EFF1F4" stroke-width="2" stroke-linecap="round" stroke-linejoin="round"/>
<path d="M170.75 249.85L173.733 246.866C174.173 246.426 174.87 246.377 175.367 246.75L179.5 249.85" stroke="#EFF1F4" stroke-width="2" stroke-linecap="round" stroke-linejoin="round"/>
<path d="M170.875 105C167.078 105 164 108.078 164 111.875C164 118.75 172.125 125 176.5 126.454C180.875 125 189 118.75 189 111.875C189 108.078 185.922 105 182.125 105C179.8 105 177.744 106.154 176.5 107.921C175.256 106.154 173.2 105 170.875 105Z" stroke="#EFF1F4" stroke-width="2" stroke-linecap="round" stroke-linejoin="round"/>
<path d="M41.5 144C46.1944 144 50 140.194 50 135.5C50 130.806 46.1944 127 41.5 127C36.8056 127 33 130.806 33 135.5C33 140.194 36.8056 144 41.5 144Z" stroke="#EFF1F4" stroke-width="2" stroke-linejoin="round"/>
<path d="M44.3287 132.172C43.6049 131.448 42.6049 131 41.5003 131C40.3957 131 39.3957 131.448 38.6719 132.172" stroke="#EFF1F4" stroke-width="2" stroke-linecap="round" stroke-linejoin="round"/>
<path d="M47.6094 141.611L51.852 145.854" stroke="#EFF1F4" stroke-width="2" stroke-linecap="round" stroke-linejoin="round"/>
<path d="M36 211.5C36 217.851 30.8513 223 24.5 223C21.0653 223 13 223 13 223C13 223 13 214.417 13 211.5C13 205.149 18.1487 200 24.5 200C30.8513 200 36 205.149 36 211.5Z" stroke="#EFF1F4" stroke-width="2" stroke-linecap="round" stroke-linejoin="round"/>
<path d="M18.75 208.05H29.1" stroke="#EFF1F4" stroke-width="2" stroke-linecap="round" stroke-linejoin="round"/>
<path d="M18.75 212.65H29.1" stroke="#EFF1F4" stroke-width="2" stroke-linecap="round" stroke-linejoin="round"/>
<path d="M18.75 217.25H24.5" stroke="#EFF1F4" stroke-width="2" stroke-linecap="round" stroke-linejoin="round"/>
<path d="M406.5 113.722C409.185 113.722 411.361 111.546 411.361 108.861C411.361 106.176 409.185 104 406.5 104C403.815 104 401.639 106.176 401.639 108.861C401.639 111.546 403.815 113.722 406.5 113.722Z" stroke="#EFF1F4" stroke-width="2" stroke-linecap="round" stroke-linejoin="round"/>
<path d="M394 128.167V129.001H419V128.167C419 125.056 419 123.5 418.395 122.312C417.862 121.266 417.012 120.416 415.967 119.884C414.778 119.278 413.222 119.278 410.111 119.278H402.889C399.777 119.278 398.222 119.278 397.033 119.884C395.988 120.416 395.138 121.266 394.606 122.312C394 123.5 394 125.056 394 128.167Z" stroke="#EFF1F4" stroke-width="2" stroke-linecap="round" stroke-linejoin="round"/>
<path d="M77.5 305V326.996" stroke="#EFF1F4" stroke-width="2" stroke-linecap="round" stroke-linejoin="round"/>
<path d="M82.998 306.998C82.998 306.998 77.9842 306.998 75.4993 306.998C73.0144 306.998 71 309.012 71 311.497C71 313.982 73.0144 315.997 75.4993 315.997" stroke="#EFF1F4" stroke-width="2" stroke-linecap="round" stroke-linejoin="round"/>
<path d="M72.002 324.998C72.002 324.998 77.0158 324.998 79.5007 324.998C81.9856 324.998 84 322.983 84 320.498C84 318.013 81.9856 315.999 79.5007 315.999H75.5014" stroke="#EFF1F4" stroke-width="2" stroke-linecap="round" stroke-linejoin="round"/>
</svg>
