<svg width="116" height="91" viewBox="0 0 116 91" fill="none" xmlns="http://www.w3.org/2000/svg">
<path d="M27.4778 32.7043C26.9006 31.3105 27.925 29.7773 29.4337 29.7773H39.1327C40.0103 29.7773 40.7968 30.3188 41.1102 31.1385L60.1054 80.8322C60.3088 81.3644 60.2891 81.956 60.0508 82.4735L57.0553 88.9789C56.7097 89.7295 55.9588 90.2104 55.1324 90.2104H52.7083C51.852 90.2104 51.0801 89.6946 50.7524 88.9035L27.4778 32.7043Z" fill="#0E1C43"/>
<path d="M55.8266 20.9562C56.4653 20.9833 57.0575 21.2976 57.438 21.8114L63.0495 29.389C64.0847 30.7869 63.0857 32.7675 61.3462 32.7659L11.079 32.7188C10.4862 32.7183 9.92076 32.4692 9.52024 32.0321L2.92264 24.8324C2.33657 24.1928 2.19998 23.2605 2.57798 22.4797L3.76886 20.0198C4.13671 19.26 4.92082 18.7914 5.76423 18.8272L55.8266 20.9562Z" fill="#0E1C43"/>
<path d="M64.3983 88.7549C64.0612 89.5269 63.2985 90.0255 62.4561 90.0247L53.1802 90.015C51.6532 90.0134 50.6301 88.4449 51.2441 87.0467L76.1702 30.2952C76.5083 29.5254 77.2699 29.0287 78.1106 29.0296L87.2427 29.0391C88.7678 29.0406 89.7909 30.6056 89.1806 32.0032L64.3983 88.7549Z" fill="#0E1C43"/>
<path d="M104.995 89.14C104.672 89.9432 103.893 90.4693 103.028 90.4684L93.2544 90.4583C91.7483 90.4567 90.7255 88.9275 91.2991 87.535L106.13 51.5323C106.822 49.8516 109.171 49.7675 109.982 51.3944L115.187 61.8393C115.457 62.3804 115.482 63.011 115.257 63.5721L104.995 89.14Z" fill="#0E1C43"/>
<path d="M101.099 87.8138C101.537 89.1807 100.516 90.5776 99.0809 90.5761L60.0539 90.5355C58.3975 90.5338 57.3847 88.7164 58.2545 87.3068L62.7605 80.0046C63.1465 79.3791 63.8293 78.9986 64.5643 78.9994L96.7458 79.0328C97.6656 79.0338 98.4795 79.6285 98.7599 80.5045L101.099 87.8138Z" fill="#0E1C43"/>
<path d="M101.586 89.3339C101.782 89.9476 101.335 90.5784 100.704 90.5778L57.9439 90.5333C57.2145 90.5326 56.7718 89.7095 57.1613 89.0783L63.1085 79.4407C63.2785 79.1653 63.5747 78.9984 63.893 78.9987L97.6185 79.0337C98.0188 79.0341 98.3736 79.2976 98.4982 79.6869L101.586 89.3339Z" fill="#0E1C43"/>
<path d="M105.202 39.4463C104.869 40.2278 104.102 40.7347 103.252 40.7338L80.7765 40.7105C79.158 40.7088 78.1399 38.9652 78.934 37.5549L82.8961 30.5174C83.2716 29.8506 83.9777 29.4383 84.743 29.4391L106.254 29.4614C107.771 29.463 108.794 31.0124 108.2 32.4079L105.202 39.4463Z" fill="#0E1C43"/>
</svg>
